<svg id="Layer_1" data-name="Layer 1" xmlns="http://www.w3.org/2000/svg" viewBox="0 0 198 46"><defs><style>.cls-1{fill:#fff;}</style></defs><title>CASALOGO-white-i</title><path class="cls-1" d="M21.12,35.54a.32.32,0,0,1-.14.14"/><path class="cls-1" d="M22.45,25.15a.28.28,0,1,0-.27-.28.28.28,0,0,0,.27.28Z"/><path class="cls-1" d="M35.32,13.42h-10V21.5a1.82,1.82,0,0,0,.79,1.67L30,25.47a.45.45,0,0,0,.35.16.48.48,0,0,0,.31-.12l3.91-2.34a1.82,1.82,0,0,0,.79-1.67V13.42Zm-6.68,2.34h-.86V13.69h.86v2.07Zm-.63.72.13-.13-.08-.14h.16l.1-.17.09.17h.17l-.08.14.12.13-.15,0v.17l-.15-.11-.15.11v-.17l-.16,0ZM25.6,19.05v-2h1v2Zm.17-2.84h.16l.1-.17.09.17h.17l-.08.14.12.13-.15,0v.17L26,16.57l-.15.11v-.17l-.16,0,.13-.13-.08-.14Zm1.19,2,.16,0,.1-.17.09.17.17,0-.08.15.12.12-.16,0v.18l-.14-.11-.15.11V18.5l-.16,0,.12-.12L27,18.2Zm.69-1.57c0-.06-.07-.07-.1-.07s-.13.15-.21.16-.1,0-.1-.06.12-.1.16-.14c-.64,0-.66.29-.76.29s.14-.31.23-.4c-.13,0-.2-.18-.35-.26.07-.1.11-.06.19,0s.06-.15.21-.15.21.28.25.28,0-.28.19-.28.65.74.32.74c-.14,0,0-.1,0-.12Zm-.74-2.17.12-.13L27,14.19l.16,0,.1-.17.09.17.17,0-.08.14.12.13-.16,0v.18l-.14-.11-.15.11v-.18l-.16,0Zm-.26-.77v2.07h-1V13.69Zm2,10.67-2.39-1.43a1.7,1.7,0,0,1-.65-1.33V19.33h3v5Zm-.86-5.31v-2h.86v2Zm3.94,5.48-1.1.66h0a.48.48,0,0,1-.29.1.46.46,0,0,1-.3-.11l-1.1-.65v-5.2h2.81v5.2Zm0-5.48H28.91V13.69h2.81v5.36ZM35,21.6a1.7,1.7,0,0,1-.65,1.33L32,24.36v-5h3V21.6Zm0-2.55H32V13.69h3v5.36Z"/><path class="cls-1" d="M28.48,21.18s-.38.12-.28.11.22-.33.31-.41-.18,0-.35.08c.57-.82.2-.49-.12-.43.51-.55.38-.54,0-.37.3-.23.36-.51.31-.59-.27.37-.53.31-.53.65a1.39,1.39,0,0,1-.19.72c-.15.16,0-.6-.43-.6-.12,0-.42,0-.51.14.08,0,.2.21.2.29s.07.3-.06.3-.29-.28-.29-.42,0-.1,0-.29a1.07,1.07,0,0,0-.74-.78c0,.22.3.28.3.57-.13,0-.31-.24-.31-.09s.19.17.19.29-.21,0-.21.09.11.1.14.22c-.08,0-.16,0-.18,0s0,.09.09.12,0,.1,0,.29c0,.64.4.93.69.93s.18-.14.2-.21c0,.11.12-.06.12.13s-.21.11-.21.28.32,0,.32.25a3.13,3.13,0,0,1,0,.42c0,.07.34-.12.32-.15s.08.27.23.26.11-.24.19-.26.3.22.3.11c0-.29-.12-.17-.12-.37s.41-.15.35-.25-.09,0-.14-.17c0,0-.32-.47.07-.22s.46-.63.44-.67Z"/><path class="cls-1" d="M39.16,23.29a.29.29,0,1,0,0-.58.29.29,0,1,0,0,.58Z"/><path class="cls-1" d="M37.83,24.08a.29.29,0,1,0,0-.58.29.29,0,1,0,0,.58Z"/><path class="cls-1" d="M22,25.91a.29.29,0,1,0,0-.58.29.29,0,1,0,0,.58Z"/><path class="cls-1" d="M23,26a.29.29,0,1,0-.33-.29A.31.31,0,0,0,23,26Z"/><path class="cls-1" d="M51.51,12.19a2.08,2.08,0,0,1,.25,2.18c-.2,0-.16-.26-.2-.4a2.6,2.6,0,0,1-.31-2.22c.23,0,.14.32.26.44Z"/><path class="cls-1" d="M9.72,13a3.26,3.26,0,0,0,0,1.39c-.09.09-.07-.09-.16-.07-.68-.49-.36-1.46-.54-2.14a.14.14,0,0,1,.18,0,1.26,1.26,0,0,1,.52.86Z"/><path class="cls-1" d="M53,13c.11.19-.09.38-.23.47a.43.43,0,0,1-.43-.19.4.4,0,0,1,.21-.46A.44.44,0,0,1,53,13Z"/><path class="cls-1" d="M8.66,13.81a.54.54,0,0,1-.23.39c-.1,0-.26,0-.33-.09A.32.32,0,0,1,8,13.74a.42.42,0,0,1,.33-.16.46.46,0,0,1,.3.23Z"/><path class="cls-1" d="M53.69,14.11a.34.34,0,0,1,0,.28.39.39,0,0,1-.47.16.47.47,0,0,1-.19-.3.5.5,0,0,1,.3-.32.54.54,0,0,1,.36.18Z"/><path class="cls-1" d="M52.7,14.13c.14.07,0,.24,0,.35s-.21.23-.37.17-.19-.08-.23-.21a.38.38,0,0,1,.25-.4c.14,0,.22,0,.33.09Z"/><path class="cls-1" d="M51.42,14.39c0,.19,0,.44-.21.47a.33.33,0,0,1-.4-.24.41.41,0,0,1,.26-.42.45.45,0,0,1,.35.19Z"/><path class="cls-1" d="M10.56,14.48c0,.17-.12.28-.23.37a.36.36,0,0,1-.35-.2c-.12-.12,0-.23.07-.33a.32.32,0,0,1,.51.16Z"/><path class="cls-1" d="M9.51,14.53a.35.35,0,0,1-.19.33A.31.31,0,0,1,9,14.71a.3.3,0,0,1,.16-.41c.19-.07.31.11.38.23Z"/><path class="cls-1" d="M47.2,14.6a3.9,3.9,0,0,1,.35,1.27c-.07.33.05.77-.19,1-.25-.09-.27-.39-.42-.55A3,3,0,0,1,47,14.39c.14-.05.14.12.19.21Z"/><path class="cls-1" d="M8.69,14.81c.05.21-.1.32-.23.44S8.12,15.15,8,15a.45.45,0,0,1,.22-.42.46.46,0,0,1,.44.23Z"/><path class="cls-1" d="M50,15.32A2.57,2.57,0,0,1,50,17l-.1.09a7.1,7.1,0,0,1-.72-1.43,2.33,2.33,0,0,1,.21-1c.13-.09.2,0,.25.12a.64.64,0,0,0,.28.53Z"/><path class="cls-1" d="M52.16,15a.47.47,0,0,1-.27.43.32.32,0,0,1-.4-.21.4.4,0,0,1,.19-.43c.2-.1.39.07.48.21Z"/><path class="cls-1" d="M9.53,15.55a.36.36,0,0,1-.26.33c-.14.11-.25-.07-.37-.12a.41.41,0,0,1,0-.4c0-.11.18-.11.28-.14s.31.15.35.33Z"/><path class="cls-1" d="M10.3,15.46c.07.18-.12.27-.19.35s-.32-.08-.41-.21a.39.39,0,0,1,.2-.38c.21-.06.31.08.4.24Z"/><path class="cls-1" d="M52.65,15.41c0,.23-.37.46-.41.68a1.76,1.76,0,0,1-1.08,1,.8.8,0,0,1-.4.23c0-.35.28-.67.47-1a2.6,2.6,0,0,1,1.42-.91Z"/><path class="cls-1" d="M9.18,16.15A5.57,5.57,0,0,0,9.9,17c0,.07,0,.18-.13.18-.85,0-1.43-.93-1.85-1.55.06-.19.28,0,.41,0,.29.23.62.3.85.6Z"/><path class="cls-1" d="M52.89,16.39a2.27,2.27,0,0,1-1.08,1.9c-.2.07-.4.27-.6.14a9.12,9.12,0,0,1,1.54-2Z"/><path class="cls-1" d="M49.54,16.9a.43.43,0,0,1-.3.51c-.19,0-.31-.14-.4-.28a.38.38,0,0,1,.24-.39.31.31,0,0,1,.21,0c.11,0,.16.12.25.21Z"/><path class="cls-1" d="M8.22,17.06a10.34,10.34,0,0,1,.94.83c-.22.16-.5,0-.77,0-.59-.22-1-.73-1.6-.9,0-.2.24-.12.37-.18a3.31,3.31,0,0,1,1.06.23Z"/><path class="cls-1" d="M26.92,11.86c-1-.39-1.63.63-2.62.51-.12.07-.09.19-.16.28s-.14,0-.19,0c-.05-.42-.19-.81-.25-1.21-.1-.18-.05-.42-.14-.6-.55-1.53,1.37-.37,1.75-1.27s-.65-.86-.94-1.4V7.92c-.28-.28-.58-.37-.75-.74a2.58,2.58,0,0,0,.05-1.35c0-.11-.09-.25-.25-.2-.33.46-.57.83-.89,1.27a8.12,8.12,0,0,0-1-.77c-.26,0-.5-.3-.8-.2a.26.26,0,0,0,.05.27,2.53,2.53,0,0,0,.86,1.72l.05.26a7.83,7.83,0,0,0-.31,2.32,12.88,12.88,0,0,1-3.79,5.33c-1,1.13-2.18,2.22-2.34,3.76-.05.25,0,.55-.16.72a6,6,0,0,1-1.62-.86c-.8-.56-2-.49-2.48-1.51-.21-.4,0-.81.24-1.11a2,2,0,0,0,.2-2.25c-.07,0-.09.07-.14.09-.06,1-.88,1.76-.56,2.9.07.34.24.55.33.86a1.67,1.67,0,0,1-.4-.09,4.22,4.22,0,0,0-1.17-.15c-.8.37-1.9-.09-2.55.65-.1,0-.24,0-.21.19.39,0,.75.11,1.14.09.61.1,1-.41,1.43-.63h.1c.18-.18.47-.07.7-.11a6.86,6.86,0,0,1,2.86,1.2v.07c-.35.15-.75.26-1.1.45a2.37,2.37,0,0,0-1,1.18c-.28.44.08.83.26,1.2,0,.17,0,.38.19.45.56-.59,0-1.33.12-2A1.42,1.42,0,0,1,12.57,20c1-.42,1.71.38,2.51.84A11.7,11.7,0,0,1,15,23.21a2.08,2.08,0,0,1-.82.13c-1.38.1-2.46.86-3.7,1.28-.56.19-1.22.18-1.78.39A4.73,4.73,0,0,0,10,25c1.71-.25,3-1.57,4.87-1.34l0,.05a4.1,4.1,0,0,1-.82,1.14c0-.19-.07-.35-.24-.45a.34.34,0,0,0-.41.14.24.24,0,0,0,0,.26.57.57,0,0,0,.39.25c0,.16-.23.23-.33.37-.49.82-1.49.49-2.06,1.07-.09.12-.4.19-.27.39a2.63,2.63,0,0,0,1.8-.46c.65-.72,1.33-1.41,2-2.09a2.13,2.13,0,0,1-.39,1.6,2.4,2.4,0,0,0-.47-.27.43.43,0,0,0-.31.35,1,1,0,0,0,.26.36A6.52,6.52,0,0,1,12,27a36.93,36.93,0,0,1-3.8.28,9.18,9.18,0,0,1-1.89,0c-.66.12-1.38-.09-1.92.28-.07.09,0,.18,0,.26.8.53,1.9.11,2.81.27h6.88a3.09,3.09,0,0,0,1.41-.27,5.15,5.15,0,0,0,1.84-2.32,3.62,3.62,0,0,0,.36-1.05,1.52,1.52,0,0,1,1.31-1.07,8,8,0,0,1-.3,2.67c-.1.56-.47,1.1-.24,1.7.05.28.35.28.58.32,2.11,0,4.22-.12,6.45,0a5.18,5.18,0,0,0,1.19.18c0-.05.16-.07.11-.18a.71.71,0,0,0-.42-.49c0-.1-.2-.07-.25-.14-1.11-.63-2.46-.3-3.77-.28A2.85,2.85,0,0,1,20.47,27c-.26-.32-.07-1.32-.07-1.32a23.65,23.65,0,0,1,1.09-3.39,3,3,0,0,0,.1-.81,3.41,3.41,0,0,0,.11-1.2,8.2,8.2,0,0,1,.54-1.63c.1-.27.19-.55.29-.81a2.75,2.75,0,0,1,.35-.92c.57.36,1.13.35,1.4,1l.24,1.46c0,.09.07.27.2.16.45-.3.31-1,.31-1.42s-.28-.81-.44-1.29a2,2,0,0,1-.32-.5c-.07-.39-.92-.66-.72-1.13a1.43,1.43,0,0,1,.59-1,.19.19,0,0,1,.09.12l.21-.14,0-1.47c.56,0,1.41.07,2,.07.16.05.28.17.46.19l.14-.19,1.41-.28c-.6.07-1-.62-1.53-.62Z"/><path class="cls-1" d="M28.45,12.48l.13,0-.13,0Z"/><path class="cls-1" d="M13.25,17.38a.4.4,0,0,1-.26.4.54.54,0,0,1-.34-.21c-.07-.19.11-.33.25-.4s.31,0,.35.21Z"/><path class="cls-1" d="M12.11,17.38a.35.35,0,0,1,.07.4c-.12.11-.31.2-.42.06s-.21-.23-.12-.37.33-.23.47-.09Z"/><path class="cls-1" d="M36.41,17.57l0,0"/><path class="cls-1" d="M49.71,17.87c.07.19-.08.33-.22.4s-.41-.08-.41-.31a.36.36,0,0,1,.27-.27.34.34,0,0,1,.36.18Z"/><path class="cls-1" d="M50.64,17.84c0,.08.17.22,0,.31a.58.58,0,0,0-.17.14.33.33,0,0,1-.42-.21c0-.19.12-.28.26-.37s.21.05.3.13Z"/><path class="cls-1" d="M7.73,18.05a.34.34,0,0,1-.47.22.93.93,0,0,1-.14-.22c0-.13,0-.25.19-.3a.4.4,0,0,1,.42.3Z"/><path class="cls-1" d="M13.61,18.34c0,.15-.17.27-.29.34a.44.44,0,0,1-.39-.25.36.36,0,0,1,.21-.35.39.39,0,0,1,.47.26Z"/><path class="cls-1" d="M12.58,18.22a.26.26,0,0,1,.06.28c-.11.09-.26.25-.44.14s-.23-.15-.19-.33a.75.75,0,0,1,.26-.21c.14,0,.21,0,.31.12Z"/><path class="cls-1" d="M53.31,18.43a.49.49,0,0,1-.23.34.35.35,0,0,1-.38-.09c-.11,0-.07-.18-.07-.26a.56.56,0,0,1,.33-.23.63.63,0,0,1,.35.24Z"/><path class="cls-1" d="M54.43,18.59a.46.46,0,0,1-.34.32c-.1,0-.29-.06-.26-.21a.29.29,0,0,1,.16-.28.32.32,0,0,1,.44.17Z"/><path class="cls-1" d="M9.72,18.84a.33.33,0,0,1-.21.42c-.12.07-.24,0-.33-.09a.3.3,0,0,1-.09-.35c0-.16.2-.12.3-.19a.39.39,0,0,1,.33.21Z"/><path class="cls-1" d="M10.58,19c.05.14-.11.19-.14.29a.29.29,0,0,1-.32,0c-.12-.11-.26-.26-.14-.42s.51-.13.6.09Z"/><path class="cls-1" d="M52.28,18.91c0,.17-.14.3-.25.4a.3.3,0,0,1-.35-.21.38.38,0,0,1,.2-.33.38.38,0,0,1,.4.14Z"/><path class="cls-1" d="M53.71,19.19c0,.16,0,.33-.19.44a.51.51,0,0,1-.42-.07.32.32,0,0,1-.07-.37.4.4,0,0,1,.42-.21c.12.07.16.16.26.21Z"/><path class="cls-1" d="M9.06,19.56c.07.14-.09.17-.14.24a.36.36,0,0,1-.35,0c-.12-.07-.07-.25-.05-.34.15-.29.47-.08.54.13Z"/><path class="cls-1" d="M52.61,19.89c.07,0,0,.12,0,.16A1.34,1.34,0,0,1,51.21,20a5.28,5.28,0,0,0-.69-.39c.08-.23.4-.21.62-.26.51.07.91.54,1.47.56Z"/><path class="cls-1" d="M9.9,19.73c0,.14-.07.2-.11.3s-.21.07-.3,0a.32.32,0,0,1-.12-.44.32.32,0,0,1,.53.1Z"/><path class="cls-1" d="M11.43,19.84a.31.31,0,0,1-.17.39c-.13.07-.23,0-.33-.06s-.25-.26-.09-.4.47-.12.59.07Z"/><path class="cls-1" d="M31.61,20.58c0,.35-.61,0-.53.42a2.84,2.84,0,0,0,.35,1c.17.23.08.6.07.88a1.56,1.56,0,0,1-.67.57c-.49-.05-1.22.25-1.46-.37a2.71,2.71,0,0,1-.28-.83c.05,0,.12,0,.17-.09s-.13-.18-.12-.3c.57-.1-.23-.6.25-.63.4.41,1.05.28,1.39.73.09.07.15.17.25.22-.06-.42-.26-.84-.33-1.29a.59.59,0,0,1,.2-.58c.3-.23.55.1.71.28Z"/><path class="cls-1" d="M13,20.47c0,.18-.09.28-.19.37s-.25-.1-.32-.19.07-.27.18-.35a.38.38,0,0,1,.33.17Z"/><path class="cls-1" d="M23.74,20.65a2.41,2.41,0,0,1-.21,2c0,.14,0,.37-.16.35-.47-.65-.12-1.57.07-2.25,0-.18.25-.25.3-.07Z"/><path class="cls-1" d="M38.68,21a2,2,0,0,1,0,1.64l-.14.14a4.08,4.08,0,0,1-.41-1.25,3.79,3.79,0,0,0,.21-.93c.25-.06.23.26.3.4Z"/><path class="cls-1" d="M14.33,21.18c-.1.21-.4.26-.59.4a2.07,2.07,0,0,1-1.56.3,1.92,1.92,0,0,1,2-.83c0,.07.13,0,.16.13Z"/><path class="cls-1" d="M7.16,21.81a4.78,4.78,0,0,1,1.2,1.72c.05.07.23.09.16.23s-.28-.11-.47-.07A1.92,1.92,0,0,1,7,21.88c0-.07.11-.07.18-.07Z"/><path class="cls-1" d="M38,22.35c0,.18,0,.36-.16.41a.32.32,0,0,1-.4-.21c0-.13.05-.2.09-.28a.31.31,0,0,1,.47.08Z"/><path class="cls-1" d="M45.37,23.29a7.35,7.35,0,0,1,.12-1,.65.65,0,0,0,.07-.37c.42-.56,1.27-.39,1.94-.33a3.65,3.65,0,0,0,.87.19.62.62,0,0,1,.44-.09c.55-.3.19-.95.22-1.46l-.21-.53a2.32,2.32,0,0,1-.14-.35c-.1-.12-.17-.35-.28-.47A6.66,6.66,0,0,0,47,17.08a7.42,7.42,0,0,0-3.68-2.27c-1.38-.47-2.78.14-4,.58a1,1,0,0,1-.68-.74A3.48,3.48,0,0,1,39,12.79a7.12,7.12,0,0,1,.48-1.18,12.67,12.67,0,0,0,.71-3,1.57,1.57,0,0,0-.94-1.39,1,1,0,0,0-1,.19,2.55,2.55,0,0,1-1.14,1c0,.3.34.11.46.21.38.07.82,0,1.13.2A2.94,2.94,0,0,1,38,10.63a14.25,14.25,0,0,0-1.59,2.74l-.07-.07.09,4.3a4.89,4.89,0,0,0,2.29,2.33c.55.45,1.25,1,2,.59.4-.12.44.44.63.67.21.65-.26,1.11-.3,1.71l-.45,1a12.4,12.4,0,0,1-1.8,3c-.26,0-.42.28-.68.29-.14.2-.42.06-.59.13-.54.23-1.31.09-1.68.6a.23.23,0,0,0,.14.08c1.07,0,2.25.09,3.39,0a.43.43,0,0,0,.28-.33c-.16-.3.05-.57.19-.8.09-.42.37-.68.49-1.09.37-.72.78-1.42,1.19-2.14l.54-.88a5.65,5.65,0,0,1,.54-1,2,2,0,0,0,.31-.48c0-.17-.07-.25-.17-.37.12-.12.31-.09.47-.12a2,2,0,0,1,1,1.16l.15.46.07.21,0,.58.07.54a12.1,12.1,0,0,1-.16,2.55c-.3,1-1.46.92-2.3,1.14-.21.14-.61.07-.61.43a16.24,16.24,0,0,0,3.28.07c.17-.07.21-.23.29-.39s.27-.42.2-.67,0-.63-.07-1a.65.65,0,0,0,0-.34c.14-.51.1-1.12.21-1.62l.07-.66Z"/><path class="cls-1" d="M54,22.6a4.36,4.36,0,0,1-2.12,2c-.07,0-.15,0-.18-.05.59-.64.91-1.62,1.83-1.85A.57.57,0,0,1,54,22.6Z"/><path class="cls-1" d="M6.3,23.46c-.09.07,0,.23-.17.25a.29.29,0,0,1-.37-.16A.32.32,0,0,1,6,23.16c.14.07.28.13.31.3Z"/><path class="cls-1" d="M11.33,23.71c.05.16-.13.16-.21.19a1.9,1.9,0,0,1-2-.51c0-.07,0-.14.07-.16.72.18,1.55,0,2.15.48Z"/><path class="cls-1" d="M7.26,23.48a.48.48,0,0,1,0,.26.39.39,0,0,1-.44.16.51.51,0,0,1-.23-.23.42.42,0,0,1,.3-.33.53.53,0,0,1,.33.14Z"/><path class="cls-1" d="M23.62,23.57c0,.15-.11.26-.21.33a.33.33,0,0,1-.37-.14c-.05-.12,0-.3.12-.33s.4,0,.46.14Z"/><path class="cls-1" d="M54.62,23.64c.05.17-.11.26-.23.36s-.23,0-.33-.05-.12-.16-.09-.28a.37.37,0,0,1,.4-.21,2,2,0,0,1,.25.18Z"/><path class="cls-1" d="M55.77,23.57c.1.15,0,.28-.07.4a.24.24,0,0,1-.31.11c-.11-.11-.25-.16-.27-.32s.16-.25.27-.3.24.11.38.11Z"/><path class="cls-1" d="M5.57,24.08c0,.12-.09.19-.12.29s-.18.11-.28.08a.55.55,0,0,1-.27-.29.47.47,0,0,1,.32-.35.48.48,0,0,1,.35.27Z"/><path class="cls-1" d="M42.33,24.08a.55.55,0,0,1,0,.22c-.11.15-.25.27-.42.18s-.23-.21-.18-.37a.35.35,0,0,1,.58,0Z"/><path class="cls-1" d="M8.38,24.34c0,.12-.09.25-.25.26s-.21-.12-.29-.19,0-.32.14-.41a.32.32,0,0,1,.4.34Z"/><path class="cls-1" d="M6.7,24.37a.38.38,0,0,1-.17.39.41.41,0,0,1-.47-.24.49.49,0,0,1,.31-.41c.16,0,.24.18.33.26Z"/><path class="cls-1" d="M43.48,24.34a.34.34,0,0,1-.19.42.42.42,0,0,1-.47-.24c.08-.15.1-.34.31-.37a.41.41,0,0,1,.35.19Z"/><path class="cls-1" d="M7.52,24.41c.05.12,0,.18-.09.26s-.13.11-.24.07S7,24.62,7,24.5a.36.36,0,0,1,.23-.34.33.33,0,0,1,.33.25Z"/><path class="cls-1" d="M53.66,24.55a.52.52,0,0,1-.3.28c-.14,0-.23-.09-.33-.14s-.05-.23,0-.32a.36.36,0,0,1,.65.18Z"/><path class="cls-1" d="M55,24.62a.45.45,0,0,1-.41.3c-.16-.07-.34-.19-.21-.4s.1-.15.21-.16a.33.33,0,0,1,.41.26Z"/><path class="cls-1" d="M46.69,24.74c.09.23-.12.3-.26.41A.81.81,0,0,1,46.1,25a.4.4,0,0,1,.24-.46.42.42,0,0,1,.35.19Z"/><path class="cls-1" d="M41.89,25c.09,0,0,.15,0,.21s-.25.24-.4.14a.3.3,0,0,1-.18-.34c.09-.19.46-.21.54,0Z"/><path class="cls-1" d="M42.87,25.08a.24.24,0,0,1-.14.28c-.12.12-.26,0-.38-.05a.28.28,0,0,1,0-.27.39.39,0,0,1,.23-.14c.12,0,.26,0,.31.18Z"/><path class="cls-1" d="M13.25,25.1c.1.1,0,.23,0,.33a.33.33,0,0,1-.43.09c-.18-.07-.16-.3-.13-.44s.11-.16.25-.16a.62.62,0,0,1,.35.18Z"/><path class="cls-1" d="M48.56,25.17c0,.17-.14.24-.26.28s-.32-.09-.4-.23S48,25,48,25c.24-.11.4.07.52.21Z"/><path class="cls-1" d="M47.62,25.17c.07.17-.12.26-.19.35a.37.37,0,0,1-.39-.07c-.09-.06-.09-.16-.09-.27s.16-.19.28-.22a.45.45,0,0,1,.39.21Z"/><path class="cls-1" d="M55.49,25.38c0,.24-.28.12-.4.19a2.78,2.78,0,0,1-2.37-.16c.05-.23.31-.14.45-.23.75-.47,1.52.11,2.27.15l.05.05Z"/><path class="cls-1" d="M7.71,25.17l-.07.12a2.79,2.79,0,0,1-2.25.4l-.07-.1a3.15,3.15,0,0,1,2.34-.48l0,.06Z"/><path class="cls-1" d="M50.34,25.29a.4.4,0,0,1-.17.33.35.35,0,0,1-.46-.19c-.05-.14.09-.28.23-.33s.33,0,.4.19Z"/><path class="cls-1" d="M10.84,25.36c-.07.14,0,.28-.21.35a.38.38,0,0,1-.44-.23c0-.19.09-.24.18-.33s.36.05.47.21Z"/><path class="cls-1" d="M9.6,25.45c.05.12,0,.19-.09.28a.32.32,0,0,1-.35.05A.4.4,0,0,1,9,25.36a1,1,0,0,1,.28-.19.38.38,0,0,1,.35.28Z"/><path class="cls-1" d="M51.56,25.85a.37.37,0,0,1-.28.32A.39.39,0,0,1,51,26a.28.28,0,0,1,.07-.33c0-.05.16-.05.23-.09a.36.36,0,0,1,.31.28Z"/><path class="cls-1" d="M8.31,25.66c0,.14-.07.19-.09.3a2.41,2.41,0,0,1-.38.75c-.34.41-.81.41-1.28.53l-.07-.14a4.69,4.69,0,0,1,1.76-1.48l.06,0Z"/><path class="cls-1" d="M50.69,26.05c0,.21-.14.24-.26.33a.4.4,0,0,1-.35-.21c0-.2.12-.26.23-.35a.34.34,0,0,1,.38.23Z"/><path class="cls-1" d="M10.32,26.05s0,.07,0,.08c0,.2-.16.25-.26.34a.5.5,0,0,1-.39-.18.29.29,0,0,1,.18-.4c.15,0,.36,0,.42.16Z"/><path class="cls-1" d="M53.9,26.57c.18,0,.21-.23.4-.26a.42.42,0,0,1,.42.19c.07.21-.09.32-.22.41s-.39-.11-.37.12a.53.53,0,0,1,.24.35c0,.07-.15.05-.21,0a2.2,2.2,0,0,1-1.25-1.09c-.07-.16-.4-.28-.21-.42a1.61,1.61,0,0,1,1.2.68Z"/><path class="cls-1" d="M55.58,26a.27.27,0,0,1,0,.33c-.09.18-.35.11-.51.09s-.17-.18-.14-.32a.54.54,0,0,1,.27-.22.46.46,0,0,1,.4.12Z"/><path class="cls-1" d="M49.24,27a2.44,2.44,0,0,1,.39.7c0,.05-.13,0-.16,0-.59-.34-1.36-.71-1.59-1.41-.05-.07-.19-.16-.17-.28a1.59,1.59,0,0,1,1.2.49c.12.18.26.26.33.46Z"/><path class="cls-1" d="M9.34,26.31c.07.16-.07.28-.16.35a.38.38,0,0,1-.4-.14c-.12-.19.1-.35.24-.42s.23.12.32.21Z"/><path class="cls-1" d="M51.42,26.71c0,.11-.12.18-.17.25s-.28.07-.4-.05-.12-.23,0-.32c.19-.25.47-.05.59.12Z"/><path class="cls-1" d="M55.77,27a.42.42,0,0,1-.25.44.44.44,0,0,1-.41-.16c-.09-.11,0-.21,0-.33a.43.43,0,0,1,.45-.13,1.12,1.12,0,0,1,.21.18Z"/><path class="cls-1" d="M43.69,29.39c0,.21-.38.15-.54.31a3.84,3.84,0,0,1-1.83.27v-.11a2.56,2.56,0,0,1,2.37-.47Z"/><path class="cls-1" d="M18.22,30.14a.33.33,0,0,1-.26.3.35.35,0,0,1-.3-.18c-.07-.21.11-.29.23-.38a.4.4,0,0,1,.33.26Z"/><path class="cls-1" d="M43.39,30.33a.48.48,0,0,1-.26.41.51.51,0,0,1-.38-.12c-.09-.07,0-.2,0-.29a.37.37,0,0,1,.69,0Z"/><path class="cls-1" d="M46.87,30.41a2.89,2.89,0,0,1-1.5.61l-.95,0-.08-.07a2.88,2.88,0,0,1,2.53-.63v.11Z"/><path class="cls-1" d="M13.44,30.83a.31.31,0,0,1-.23.33.3.3,0,0,1-.36-.16.31.31,0,0,1,.14-.4c.19-.12.38.09.45.23Z"/><path class="cls-1" d="M14.31,31c0,.09,0,.14-.07.23s-.24.09-.33,0a.22.22,0,0,1-.1-.3c0-.1.15-.09.21-.16s.24.11.29.23Z"/><path class="cls-1" d="M7.63,32.78c-.18.21-.46-.05-.65-.16-.61-.35-.59-1-1.2-1.44.07-.21.22,0,.35,0a2,2,0,0,0,.36.19c.6.34.74.9,1.14,1.43Z"/><path class="cls-1" d="M58.51,26a1.39,1.39,0,0,0-1.31-.72,1.21,1.21,0,0,0-1,.72.88.88,0,0,0,.34,1,.25.25,0,0,0,.34-.08c.09-.23-.15-.23-.19-.41a.58.58,0,0,1,.19-.61c.18-.18.48-.09.68-.09a1.24,1.24,0,0,1,.53.51,1.48,1.48,0,0,1,0,.93,1.57,1.57,0,0,1-1.08.88c-1.45.21-17.35.14-17.35.14-1.87.18-4-.35-5.61.63a2.77,2.77,0,0,0-1.29,1.88,13.67,13.67,0,0,0-1.36,1.39L31.37,32c.08-.42.28-.79.36-1.21.27-.35.27-.83.46-1.22a9.54,9.54,0,0,1,2.32-2.91c.43-.58,1.2-.48,1.87-.48a4.62,4.62,0,0,0,2.42.35.14.14,0,0,0,.06-.12c-.25-.23-.65-.32-.93-.54-.7-.34-1.36.1-2.09.05,0,0-.07-.05-.06-.11A10.79,10.79,0,0,1,38,24.69a14.15,14.15,0,0,1,1.9-.75c.26,0,.51-.23.75-.07l.93-.25s.07.07.14.05a9.5,9.5,0,0,1,2.67,0l.12.1.84.21c.31,0,.45.41.78.42.18-.24-.19-.35-.28-.5A1.89,1.89,0,0,1,47,24l-.17.19c-.11.2.05.34.21.41s.21-.05.29-.09c.23-.16,0-.32.06-.46a16.63,16.63,0,0,1,3.71,1.06c.34.1.65.35,1,.33a4.7,4.7,0,0,0-1.33-.7c-.3-.18-.72-.19-.94-.44,0-.09.17-.05.22-.12a2.56,2.56,0,0,0,1.52-1c0-.1.23-.07.21-.21s-.42.05-.63,0c-.73.14-1,1-1.78,1.16l-2.68-.65a5.65,5.65,0,0,1-1.31-.28l-1-.09H42.61s-.07-.06,0-.11c.62-.16,1.17-.53,1.79-.68L49,20.26a11.3,11.3,0,0,0,1.33-1.44.32.32,0,0,0-.19-.33.27.27,0,0,0-.35.07c-.21.15,0,.35,0,.54a2.92,2.92,0,0,1-.81.69c-.07,0-4.81,2.16-4.81,2.16a12.17,12.17,0,0,1-2.13.79l-1,.16a.66.66,0,0,1-.43.4,3.83,3.83,0,0,1-.8.23,17.88,17.88,0,0,0-6.43,3.6,1.91,1.91,0,0,0,.18-.73,1.46,1.46,0,0,0-.2-.78c0-.09-.17-.38-.12-.48l-.26.17a2.39,2.39,0,0,0-.14,1.49c0,.32.31.69.07,1a16.18,16.18,0,0,0-1.87,3.41c-.21,0-.31-.23-.4-.42a5.87,5.87,0,0,0,1.24-2.57c.12-.09,0-.32.16-.42,0-.28.15-.56,0-.79.11-.39-.52-.74-.12-1l-.33.16c-.75,1,.39,2.46-.46,3.41v.07a3.25,3.25,0,0,1-.7.85c-.42-.18-.58-.65-.82-1a1.53,1.53,0,0,1-.16-1.63c.16-.51-.1-.95-.16-1.41l-.17-.1a2,2,0,0,0-.25,2.05c.18.32.2.76.46,1a5.63,5.63,0,0,0,.75,1.3c.07.18-.1.21-.19.3-.19-.12-.16-.4-.33-.52a12.83,12.83,0,0,0-2.24-3.22c0-.16-.19-.3-.1-.48a1.27,1.27,0,0,0,.22-1.33c0-.09-.14-.2-.12-.28L27.09,25c0,.61-.37,1.16-.19,1.81v0a33.76,33.76,0,0,0-5.81-3.51l-.16.45a12.34,12.34,0,0,1,1.87,1,12.14,12.14,0,0,1,1.74.93,12,12,0,0,1,5,5.93c0,.19.19.4.07.6a9.37,9.37,0,0,0-1.33-1.34A2.55,2.55,0,0,0,27,28.86c-.26-.39-.82-.42-1.26-.55l-6.35,0c-5.17-.07-9.88.16-15,.07-.72-.07-1.59-.32-1.8-1.07a1.17,1.17,0,0,1,0-1,1.07,1.07,0,0,1,.89-.48.93.93,0,0,1,.59.5c0,.22-.19.44-.28.63s.09.21.21.16a.85.85,0,0,0,.46-.57c0-.12.06-.29-.06-.38a1.16,1.16,0,0,0-.82-.72,1.45,1.45,0,0,0-1.18.4,1.44,1.44,0,0,0-.28,1.48A2.38,2.38,0,0,0,4,28.74l17,.07a34.86,34.86,0,0,1,5.2.14,2,2,0,0,1,1.41,1.33s-.07,0-.12,0a7.56,7.56,0,0,0-5-1,6.33,6.33,0,0,0-1.95.4,1,1,0,0,1-.86-.28,2.9,2.9,0,0,0-2.53-.31c0,.05,0,.1,0,.12.85-.07,1.36.67,2.13.76.17,0,.31-.16.47,0A16.54,16.54,0,0,1,17.33,31c-.26-.05-.4-.3-.61-.44-.33-.37-.94-.21-1.39-.25-.16,0-.3-.07-.41,0a1.52,1.52,0,0,0,.75.58c.44.2,1,0,1.35.25a1.67,1.67,0,0,1-.37.24c-.82.32-1.5,1.06-2.41,1a3.11,3.11,0,0,1-2.58-.85,1.77,1.77,0,0,0-1.76-1c-.06,0-.13,0-.11.13.39.22.68.68,1.07.95s.71,0,.94.33a3.06,3.06,0,0,0,1.13.49,4.52,4.52,0,0,0,.91.25l-.12.07a14.89,14.89,0,0,1-5.2.51c-.53,0-1-.18-1.56-.16a1.09,1.09,0,0,0,.42.25,1.17,1.17,0,0,1-.47.14,3.21,3.21,0,0,0-.66.17,1.8,1.8,0,0,0-.75.18,3.57,3.57,0,0,1-1,.81c0,.07,0,.17.07.17.33-.14.75,0,1.08-.17.58-.06.91-.69,1.37-1a2.27,2.27,0,0,1,1.78-.21c.35.09,0,.23.07.46s.26.26.45.21a.34.34,0,0,1,.12-.09.39.39,0,0,0,0-.44c.24-.16.58,0,.84-.09.66,0,1.32-.16,2-.18.11,0,.23-.12.33,0s-.22.16-.16.35a.42.42,0,0,0,.35.26c.18-.07.34-.19.27-.42s-.18-.14-.27-.19c.37-.18.79-.23,1.16-.41a3.47,3.47,0,0,0,.73-.24c.23,0,.42-.23.63-.14a3.7,3.7,0,0,1-.37.84,4.2,4.2,0,0,0,0,3.06c.05,0,.07,0,.11,0a4.19,4.19,0,0,1,.15-2.88c.25-1.49,1.78-1.93,2.88-2.5l.06.07a5.5,5.5,0,0,0-.67,2.45c0,.16-.07.31,0,.42a1.86,1.86,0,0,0,.65-.81c.12-.79-.33-1.78.47-2.36A12.11,12.11,0,0,1,23,29.53c.06,0,.18,0,.19.07-.34.38-.85.75-1,1.23a3.93,3.93,0,0,0-.29,3c.15.54-.32.84-.55,1.26-.1.15-.13.41-.24.58l.35,0a1.81,1.81,0,0,0,.59-1.16.47.47,0,0,0,.33.35c.13-.19-.1-.33-.12-.53.28-.15.4.2.63.27a4.36,4.36,0,0,0,1.07.24l.12-.12a2.18,2.18,0,0,0-1.82-.74,3.46,3.46,0,0,1-.31-2A3,3,0,0,1,22.31,31a2.32,2.32,0,0,1,.49-.67,2.39,2.39,0,0,1,1.1-.6H24s0,.05,0,.05c-.48.37-.53.88-.81,1.34A1.48,1.48,0,0,0,23,32.62c.1.23,0,.58.29.74a3.78,3.78,0,0,0,.37-1.07c-.05-.58-.4-1.13-.07-1.69a1.4,1.4,0,0,1,.94-.77,5.39,5.39,0,0,1,2.64.77c.17.12.47.23.5.47a1.42,1.42,0,0,1-2.23,1.16,1.2,1.2,0,0,1-.28-1.07.71.71,0,0,1,.77-.28c.17.09.33.26.56.16a.23.23,0,0,0,.07-.28c-.2-.11-.27-.37-.53-.41a1.14,1.14,0,0,0-1,.2,1.26,1.26,0,0,0-.4,1.23,1.5,1.5,0,0,0,1.08,1.12,2,2,0,0,0,2.15-.74,2.31,2.31,0,0,0,.38-.75,4.52,4.52,0,0,1,1.8,2.32,3.74,3.74,0,0,1,0,.88l.61,0a.61.61,0,0,1,.05-.42,5.38,5.38,0,0,1,1.8-2.89c.3-.17.23.23.3.36A2.34,2.34,0,0,0,34.39,33a1.89,1.89,0,0,0,1.88-.61c.23-.42.51-1,.12-1.48a1.19,1.19,0,0,0-1-.46,1.2,1.2,0,0,0-1,.65c0,.14,0,.3.11.37s.21,0,.26-.09c0-.26.26-.38.47-.52a.55.55,0,0,1,.56.1.9.9,0,0,1,.24.69,1.08,1.08,0,0,1-.57.83,1.79,1.79,0,0,1-1.68-.16,4.12,4.12,0,0,1-.49-.78c0-.28-.14-.52,0-.81a5.88,5.88,0,0,1,2.5-.87,1.76,1.76,0,0,1,.93.58c.8.82-.18,2,.38,2.91.21,0,.21-.31.3-.49A3.08,3.08,0,0,0,37.25,31a3.67,3.67,0,0,0-.66-1,.49.49,0,0,1,.21,0,4.28,4.28,0,0,1,1.06.91,4.68,4.68,0,0,1,.68,2.88c-.14.53-.7.78-1.13,1a1.61,1.61,0,0,0-.48.56c.21.13.51,0,.72-.09s.52-.54.75-.73c0,0,0,.07,0,.1,0,.2-.09.46.08.51a5.66,5.66,0,0,0,.16-.89A1.69,1.69,0,0,1,39,35c.16.32.42.74.84.79.1-.15,0-.31-.05-.45,0-.44-.42-.67-.67-1-.61-.84-.33-2.16-.8-3.11a3.63,3.63,0,0,0-.94-1.3l.07-.07a10.24,10.24,0,0,1,2.36.42c1,.48,2.35.37,2.81,1.62a4.63,4.63,0,0,0,1,1.9l.05,0a.68.68,0,0,0,0-.65c-.1-.88-.87-1.09-1.27-1.83l.05-.07a12.65,12.65,0,0,1,1.28.41,3.76,3.76,0,0,1,2.54,3.18,7,7,0,0,1-.64,3c-.05.14-.3.3-.14.42.19-.14.23-.37.33-.53a4.89,4.89,0,0,0,.58-3.53c0-.23-.28-.41-.16-.63a.54.54,0,0,0,.3.15c.1-.07.26-.07.33-.19s.08-.23,0-.32a.51.51,0,0,0-.51-.12.88.88,0,0,0-.21.39,3.4,3.4,0,0,0-.63-.93l0-.06c.78.27,1.5.65,2.3.86a1.14,1.14,0,0,0,.61.2,16.9,16.9,0,0,0,2.15.54c.52-.05,1,.2,1.48.07v0c-.2-.25-.61,0-.84-.2a13.05,13.05,0,0,1-3.44-.86c0-.05.09,0,.14,0a.33.33,0,1,0-.12-.64c-.11.06-.25.18-.26.3a.44.44,0,0,0,.26.34s-.11,0-.16,0c-.54-.24-1.07-.47-1.59-.72-.19,0-.35-.19-.54-.23-.4-.19-.8-.38-1.2-.54a27.46,27.46,0,0,0-3.55-1.32L40,30l-1.31-.35a6.6,6.6,0,0,0-4.76.4c-.21-.07-.33.26-.44.05a2.46,2.46,0,0,1,2.39-1.31c7-.07,13.57-.13,20.46-.23a2.2,2.2,0,0,0,2-1A1.76,1.76,0,0,0,58.51,26ZM30.76,32.45a1.69,1.69,0,0,0-.2.61l-.07,0c.06-.27-.21-.43-.14-.71a7.23,7.23,0,0,1-.26-.7c-.15-.28.14-.41.26-.6.25.11.34.33.51.55s-.12.52-.1.81Z"/><path class="cls-1" d="M49.69,31.34c0,.05.11.07.07.15a3.57,3.57,0,0,1-2.33.74.56.56,0,0,1-.23.06c-.05,0-.07-.09,0-.13a2.68,2.68,0,0,1,2.53-.82Z"/><path class="cls-1" d="M46.88,31.62c.07.24-.08.39-.28.47a.48.48,0,0,1-.38-.28c0-.14.07-.21.12-.3a.33.33,0,0,1,.54.11Z"/><path class="cls-1" d="M13.7,31.65a.34.34,0,0,1-.09.37.33.33,0,0,1-.31.09c-.12,0-.19-.16-.23-.26a.39.39,0,0,1,.23-.34c.14,0,.3,0,.4.14Z"/><path class="cls-1" d="M10.58,32.8v.12a1.39,1.39,0,0,1-1.14-.26,2.23,2.23,0,0,0-.92-.88c0-.06-.11-.13,0-.16.87,0,1.39.7,2.06,1.18Z"/><path class="cls-1" d="M52.35,31.64c-.4.59-.75,1.33-1.47,1.6-.12,0-.22.17-.33,0a3.2,3.2,0,0,1,1.55-1.67.53.53,0,0,1,.25,0Z"/><path class="cls-1" d="M14.71,31.85c0,.19-.12.23-.24.33s-.21-.09-.3-.19.09-.25.18-.34a.36.36,0,0,1,.36.2Z"/><path class="cls-1" d="M54.55,32c-.16.23-.09.57-.25.81-.35.41-.64.86-1.2,1-.09-.17.12-.35.21-.51a2.47,2.47,0,0,1,1.15-1.35l.09.1Z"/><path class="cls-1" d="M5.17,32.11a.37.37,0,0,1,0,.39.43.43,0,0,1-.41.07.33.33,0,0,1-.14-.42c.11-.16.42-.25.55,0Z"/><path class="cls-1" d="M4.17,32.32c0,.09.07.16,0,.25a.41.41,0,0,1-.24.21.37.37,0,0,1-.4-.23.34.34,0,0,1,.17-.37.36.36,0,0,1,.42.14Z"/><path class="cls-1" d="M6.23,32.43c0,.14.07.38-.14.42s-.38-.07-.52-.21a.38.38,0,0,1,.21-.35.47.47,0,0,1,.45.14Z"/><path class="cls-1" d="M9.09,32.66c0,.12,0,.3-.12.33s-.24,0-.33,0-.23-.2-.12-.32a.63.63,0,0,1,.24-.19c.11,0,.26,0,.33.14Z"/><path class="cls-1" d="M56.22,32.78c0,.12-.12.28-.26.28s-.31,0-.4-.19.09-.3.23-.35.4.07.43.26Z"/><path class="cls-1" d="M53,32.87c0,.14-.14.24-.21.3a.33.33,0,1,1-.24-.58.45.45,0,0,1,.45.28Z"/><path class="cls-1" d="M55.19,32.83a.37.37,0,0,1-.15.3.4.4,0,0,1-.42-.07c-.16-.14,0-.26.07-.37s.45-.07.5.14Z"/><path class="cls-1" d="M4.71,33.13a.36.36,0,0,1-.21.44.4.4,0,0,1-.38-.25A.32.32,0,0,1,4.29,33a.38.38,0,0,1,.42.17Z"/><path class="cls-1" d="M52.16,33.32a.4.4,0,0,1-.25.46c-.14,0-.23,0-.33-.12s-.16-.28,0-.37a.35.35,0,0,1,.6,0Z"/><path class="cls-1" d="M14.1,33.52c.07.19-.14.23-.19.33s-.21,0-.26,0-.19-.21-.14-.37.12-.14.23-.17.26.12.36.23Z"/><path class="cls-1" d="M55.91,33.64c0,.12-.07.18-.09.26a.48.48,0,0,1-.4.08c-.16-.09-.16-.23-.16-.39s.13-.16.25-.2a.4.4,0,0,1,.4.25Z"/><path class="cls-1" d="M54.83,33.69c.07.21-.12.32-.26.37s-.18,0-.2.07a4.67,4.67,0,0,1,1.09.93v.14a2.33,2.33,0,0,1-1.73-.66c-.12-.09-.33-.09-.47-.21.22-.23.64-.14,1-.16.22-.25-.27-.42,0-.63.11,0,.18-.13.32-.09a.6.6,0,0,1,.26.24Z"/><path class="cls-1" d="M47.69,33.71c0,.09-.07.19-.09.28a.32.32,0,0,1-.38.07c-.09-.12-.23-.23-.18-.4a.36.36,0,0,1,.65.05Z"/><path class="cls-1" d="M8.66,34.33c-.06.15-.13.26-.3.28a.34.34,0,0,1-.31-.21c0-.13.07-.2.08-.28.2-.16.54-.06.53.21Z"/><path class="cls-1" d="M10.07,34.1c0,.24-.26.38-.35.63a1.77,1.77,0,0,1-1.39,1.16c-.08-.16.22-.35.29-.51A3.61,3.61,0,0,1,10,34.1Z"/><path class="cls-1" d="M47.27,34.34c0,.2-.16.34-.3.41s-.28-.07-.37-.14-.05-.28,0-.42.51,0,.65.15Z"/><path class="cls-1" d="M48.35,34.47a.43.43,0,0,1-.31.38c0-.05-.13,0-.18,0a.4.4,0,0,1-.23-.32c.09-.09.13-.23.25-.24s.42,0,.47.21Z"/><path class="cls-1" d="M12.78,34.45a.4.4,0,0,1-.27.37.35.35,0,0,1-.33-.21c0-.16.12-.27.21-.35s.26.08.39.19Z"/><path class="cls-1" d="M14,34.52a.42.42,0,0,1-.33.3c-.12,0-.26-.07-.31-.21s.12-.27.24-.35.37.07.4.26Z"/><path class="cls-1" d="M52.1,35.75c.09.07.25.16.21.28-.28.13-.5-.19-.76-.25a3.5,3.5,0,0,1-.91-1.4c.15-.16.33,0,.47.09a3.4,3.4,0,0,1,1,1.28Z"/><path class="cls-1" d="M52.75,34.52a.49.49,0,0,1,0,.39c-.11.17-.34.14-.49.1s-.25-.24-.14-.4.21-.18.33-.23.21.09.33.14Z"/><path class="cls-1" d="M15.59,35c0,.14.05.35-.13.44a.34.34,0,0,1-.41-.22c-.09-.21.1-.24.21-.35s.22,0,.33.13Z"/><path class="cls-1" d="M48.3,36.12a2.55,2.55,0,0,1,.45,1.25c0,.12.09.24,0,.33h-.06a3.91,3.91,0,0,1-1.26-2.14.15.15,0,0,1-.07-.18c.17-.16.29.16.47.21l.49.53Z"/><path class="cls-1" d="M17.86,35.52a0,0,0,0,0,0,0,2.31,2.31,0,0,1-2.48.31s0-.14.09-.15A3.63,3.63,0,0,1,17,35.38l.84.14Z"/><path class="cls-1" d="M13.88,35.61c-.6.37-1.14,1.09-1.87,1.27-.14,0-.23.24-.4.14a2.57,2.57,0,0,1,2.27-1.55v.14Z"/><path class="cls-1" d="M47.27,36.4c0,.14,0,.34-.14.37a.24.24,0,0,1-.33,0c-.16-.07-.16-.23-.16-.35s.17-.14.26-.19.28,0,.37.17Z"/><path class="cls-1" d="M45.82,36.49a1,1,0,0,1-.63.46,2.7,2.7,0,0,1-1.66-.21c0-.15.2-.09.28-.18a3.82,3.82,0,0,1,1.78-.09s.18,0,.23,0Z"/><path class="cls-1" d="M13.88,37c-.06.07-.07.23-.21.28a.37.37,0,0,1-.35-.07c0-.11-.16-.19-.07-.32s.17-.15.28-.19a.38.38,0,0,1,.35.3Z"/><path class="cls-1" d="M14.91,37.16c-.06.1-.11.26-.25.33a.37.37,0,0,1-.35-.12.43.43,0,0,1-.05-.35c0-.09.16-.11.24-.16s.34.16.41.3Z"/><path class="cls-1" d="M46.94,37.33a.53.53,0,0,1-.13.34.29.29,0,0,1-.38.07c-.12,0-.16-.16-.21-.25s.07-.23.12-.35a.39.39,0,0,1,.6.19Z"/><path class="cls-1" d="M47.71,37.3c0,.09.07.17,0,.24s-.17.32-.38.23-.16-.1-.21-.14,0-.44.21-.47.26.08.35.14Z"/><path class="cls-1" d="M14.28,37.81a.48.48,0,0,1-.18.47c-.19,0-.43,0-.5-.19a.46.46,0,0,1,.21-.51.42.42,0,0,1,.47.23Z"/><path class="cls-1" d="M15.27,37.74a1.59,1.59,0,0,1-.63,1.37c-.28,0-.55.31-.83.14v-.09a17.86,17.86,0,0,1,1.46-1.42Z"/><path class="cls-1" d="M44.2,38.14c.07.11-.06.19-.11.28s-.3.07-.42,0-.14-.23-.08-.35.14-.16.22-.2a.51.51,0,0,1,.39.25Z"/><path class="cls-1" d="M17,39c.24.4.1.95.24,1.39-.29,0-.42-.3-.61-.48a5.4,5.4,0,0,1-.5-1.84.1.1,0,0,1,.12,0,4.66,4.66,0,0,1,.66.74c0,.12.11.12.09.23Z"/><path class="cls-1" d="M45.07,38.28c0,.14-.16.18-.25.26a.58.58,0,0,1-.33-.15c-.05-.18.09-.23.18-.32a.29.29,0,0,1,.4.21Z"/><path class="cls-1" d="M47.15,39.85s0,.15-.11.12H47A2.11,2.11,0,0,1,46,38.3l.1,0a2.24,2.24,0,0,1,1,1.57Z"/><path class="cls-1" d="M45.84,39.28a.44.44,0,0,1-.16.34c-.19.05-.49,0-.52-.23s.17-.26.26-.35a.36.36,0,0,1,.42.24Z"/><path class="cls-1" d="M44.69,39.65c-.25.65-.91,1-1.37,1.48-.08-.05,0-.19,0-.26a2.45,2.45,0,0,1,1.34-1.59c.28,0,0,.23.06.37Z"/><path class="cls-1" d="M46,40.18c0,.16-.15.23-.24.32a.52.52,0,0,1-.38-.2c0-.17.12-.22.22-.31a.35.35,0,0,1,.4.19Z"/><path class="cls-1" d="M33,8.26a.44.44,0,0,1,.43.44.43.43,0,0,1-.43.43H27.83a.43.43,0,0,1-.43-.43.44.44,0,0,1,.43-.44ZM29.35,9c.5,0,0-.61-.25-.61h-.5c-.51,0,0,.61.24.61Zm2.12,0c.5,0,0-.61-.25-.61h-.5c-.51,0,0,.61.24.61ZM33,8.4h-.19c-.51,0-.08.61.19.61s.36-.61,0-.61Z"/><path class="cls-1" d="M32.55,14.2l1,.38,1-.38-.38,1.46.77-.16-.26.88.26.85L34.22,17l.29,1.57-1-.38-1,.38L33,17l-.78.22.21-.88-.21-.85.75.13-.37-1.46ZM34,16.83c.22,0,.24-.31.24-.57,0-.6-.47,0-.71-.57-.18.48-.67,0-.67.55,0,.35,0,.59.35.59Zm-1-.54c0,.23.31.07.54.07s.53.16.53-.07-.31-.22-.53-.22S33,16,33,16.29Z"/><polygon class="cls-1" points="30.24 16.34 30.24 16.16 30.07 16.13 30.2 15.99 30.12 15.84 30.29 15.86 30.39 15.68 30.49 15.86 30.67 15.84 30.59 15.99 30.71 16.13 30.55 16.16 30.55 16.34 30.39 16.23 30.24 16.34 30.24 16.34"/><polygon class="cls-1" points="29.47 17.33 29.47 17.15 29.3 17.11 29.43 16.98 29.35 16.83 29.52 16.85 29.63 16.67 29.73 16.85 29.9 16.83 29.82 16.98 29.95 17.11 29.78 17.15 29.78 17.33 29.63 17.21 29.47 17.33 29.47 17.33"/><polygon class="cls-1" points="30.77 17.2 30.77 17.02 30.61 16.99 30.74 16.85 30.66 16.7 30.83 16.72 30.93 16.54 31.03 16.72 31.2 16.7 31.12 16.85 31.25 16.99 31.09 17.02 31.09 17.2 30.93 17.09 30.77 17.2 30.77 17.2"/><polygon class="cls-1" points="30.93 17.94 30.93 17.84 30.83 17.82 30.91 17.75 30.86 17.66 30.96 17.67 31.01 17.57 31.07 17.67 31.17 17.66 31.12 17.75 31.2 17.82 31.1 17.84 31.1 17.94 31.01 17.88 30.93 17.94 30.93 17.94"/><polygon class="cls-1" points="29.72 18.79 29.72 18.47 29.43 18.42 29.65 18.19 29.52 17.93 29.81 17.96 29.98 17.65 30.16 17.96 30.45 17.93 30.31 18.19 30.54 18.42 30.25 18.47 30.25 18.79 29.98 18.59 29.72 18.79 29.72 18.79"/><polygon class="cls-1" points="30.33 2.21 30.95 3.72 32.5 3.26 31.71 4.68 33.04 5.62 31.44 5.89 31.54 7.52 30.33 6.43 29.13 7.52 29.22 5.89 27.62 5.62 28.95 4.68 28.16 3.26 29.72 3.72 30.33 2.21 30.33 2.21"/><path class="cls-1" d="M24.7,36.11c-.18.07-.26.12-.21.31l.22.93a.83.83,0,0,1-.06.6,1.15,1.15,0,0,1-.64.38,1.24,1.24,0,0,1-.74,0,.57.57,0,0,1-.37-.47l-.23-1c-.05-.25-.14-.23-.34-.2l0-.07,1.17-.28,0,.07c-.23.06-.33.09-.27.35l.22,1a.49.49,0,0,0,.64.44.57.57,0,0,0,.47-.78l-.21-.88c-.05-.18-.11-.27-.41-.21l0-.07.76-.18,0,.07Z"/><path class="cls-1" d="M26.43,36.3a.73.73,0,0,0-.8-.38c-.18,0-.35.17-.31.36s.12.2.44.26l.56.1a.62.62,0,0,1,.5.45c.05.26-.09.66-.73.8a3.35,3.35,0,0,1-.62,0c-.07,0-.08.07-.08.12l-.1,0-.16-.72.1,0a.74.74,0,0,0,.85.46c.42-.09.37-.38.36-.42,0-.2-.22-.23-.46-.27l-.26,0c-.64-.11-.7-.36-.73-.49s0-.6.64-.75a3,3,0,0,1,.57,0c.08,0,.08-.07.09-.13l.1,0,.14.63-.1,0Z"/><path class="cls-1" d="M28.74,37.45l-1.27.13V37.5c.25,0,.34,0,.31-.3l-.15-1.57c-.24,0-.61.08-.63.57h-.11l0-.6L29,35.4,29,36h-.1c-.12-.47-.49-.45-.73-.44l.15,1.57c0,.25.11.25.37.24v.07Z"/><path class="cls-1" d="M31.7,37.45H31l-.72-.95h-.1v.58c0,.24.08.25.31.29v.07l-1.2,0v-.08c.24,0,.31,0,.32-.27l0-1.32c0-.25-.1-.26-.31-.28v-.07l1.14,0c.25,0,1,0,1,.54s-.37.46-.56.5l.69.87a.17.17,0,0,0,.15.06v.07Zm-1.54-1.06c.46,0,.65,0,.66-.44a.38.38,0,0,0-.43-.44c-.19,0-.2,0-.22.12v.76Z"/><path class="cls-1" d="M34,37.76l-1.14-.15v-.07c.22,0,.28,0,.3-.08a1.5,1.5,0,0,0-.12-.42l-.79-.1a1.77,1.77,0,0,0-.21.37c0,.11.16.14.28.16v.07l-.72-.09v-.07c.2,0,.26-.1.39-.3l1-1.53h.1l.59,1.66c.12.34.16.44.33.46v.08Zm-1-.84-.26-.76-.42.67.68.09Z"/><path class="cls-1" d="M36.11,38.18l-2-.38,0-.07c.2,0,.3,0,.33-.15l.26-1.42c0-.2-.1-.23-.26-.27v-.07l1.23.22,0,.07c-.25,0-.35,0-.4.21L35,37.71c0,.14,0,.18.28.22a.87.87,0,0,0,1-.41l.1,0-.26.64Z"/><path class="cls-1" d="M37.45,38.48l-1.22-.26,0-.07c.19,0,.33,0,.36-.14l.3-1.42c0-.19-.13-.23-.29-.27l0-.08,1.22.26,0,.07c-.16,0-.33-.06-.37.14l-.29,1.42c0,.18.1.22.29.27l0,.08Z"/><path class="cls-1" d="M39.93,38.79l-1.15-.11V38.6c.22,0,.28,0,.29-.09A1.44,1.44,0,0,0,39,38.1l-.8-.08a1.34,1.34,0,0,0-.19.37c0,.11.15.14.27.15v.08l-.72-.08v-.07c.2,0,.26-.1.39-.31l1-1.55H39l.63,1.65c.13.33.17.44.34.45v.07Zm-1-.81-.29-.76-.4.69.69.07Z"/><path class="cls-1" d="M30.82,14.68c0-.71-.4,0-.62-.65-.17.51-.65.08-.65.64a.44.44,0,0,0,.16.4v.21a.09.09,0,0,0,.1.1h.76a.1.1,0,0,0,.1-.1v-.23a.47.47,0,0,0,.15-.37Zm-.62.14c-.21,0-.49.15-.49-.1s.24-.28.45-.28.53-.07.53.28-.28.1-.49.1Z"/><path class="cls-1" d="M37.07,23.49a.29.29,0,1,0-.33-.29.31.31,0,0,0,.33.29Z"/><path class="cls-1" d="M35.52,12.86a1.8,1.8,0,0,0-.15.31.16.16,0,1,0,.31,0l-.16-.31Z"/><path class="cls-1" d="M25,12.86a1.76,1.76,0,0,0-.16.31.16.16,0,1,0,.32,0L25,12.86Z"/><path class="cls-1" d="M27.61,12.86a1.8,1.8,0,0,0-.15.31.16.16,0,1,0,.31,0l-.16-.31Z"/><path class="cls-1" d="M30.25,12.86a1.8,1.8,0,0,0-.15.31.16.16,0,1,0,.31,0l-.16-.31Z"/><path class="cls-1" d="M32.89,12.86a1.76,1.76,0,0,0-.16.31.16.16,0,1,0,.31,0l-.15-.31Z"/><path class="cls-1" d="M25,16.48a1.76,1.76,0,0,1,.16.31.16.16,0,1,1-.32,0l.16-.31Z"/><path class="cls-1" d="M25,20a2,2,0,0,1,.16.3.16.16,0,1,1-.32,0L25,20Z"/><path class="cls-1" d="M25.4,22.78a1.76,1.76,0,0,1,.16.31.16.16,0,1,1-.31,0s.15-.31.15-.31Z"/><path class="cls-1" d="M27.62,24.26a1.8,1.8,0,0,1,.15.31.16.16,0,1,1-.31,0l.16-.31Z"/><path class="cls-1" d="M35.66,16.48a1.76,1.76,0,0,0-.16.31.16.16,0,1,0,.31,0l-.15-.31Z"/><path class="cls-1" d="M35.66,20a2,2,0,0,0-.16.3.16.16,0,1,0,.31,0l-.15-.3Z"/><path class="cls-1" d="M35.23,22.78a1.8,1.8,0,0,0-.15.31.16.16,0,1,0,.31,0s-.16-.31-.16-.31Z"/><path class="cls-1" d="M33,24.26a1.8,1.8,0,0,0-.15.31.16.16,0,1,0,.31,0L33,24.26Z"/><path class="cls-1" d="M30.33,25.83a1.8,1.8,0,0,0-.15.31.16.16,0,1,0,.31,0s-.16-.31-.16-.31Z"/><path class="cls-1" d="M34.62,20.58c0,.05.12.07.22,0l.1-.28s-.11-.13-.19-.12c-.28.07-.58.1-.74.37a.56.56,0,0,0,.26.44c.1,0,.12.06.18.11a.11.11,0,0,1-.11.15c-.2-.2-.55.07-.7-.18.07-.25.2-.53,0-.77,0,0,.1-.1,0-.15-.09-.23-.34-.05-.49-.05a.64.64,0,0,0-.59.3.43.43,0,0,0,.13.25c.07,0,.1,0,.12.07l-.17.1a.4.4,0,0,1,.07.18c-.12,0-.24-.11-.29-.2s0-.36-.16-.4l-.15.05a.51.51,0,0,0-.06.28,1.1,1.1,0,0,0,.06.29,2.88,2.88,0,0,1,.63.62c-.15.3-.15.71-.5.88a.28.28,0,0,0-.1.27l.09.07c.21-.12.63-.15.59-.52a1.5,1.5,0,0,1,.32-.44.36.36,0,0,1,.38.19.66.66,0,0,1-.45.5s0,.08,0,.13.25.07.35.05c.29-.18.4-.51.65-.62,0,.17-.33.22-.1.39.15,0,.35,0,.45-.19-.12-.28.4-.41.08-.66,0-.25.27-.35.25-.62s-.42-.27-.5-.52a.36.36,0,0,1,.35,0Z"/><path class="cls-1" d="M22.51,23.62a.29.29,0,1,0-.33-.29.31.31,0,0,0,.33.29Z"/><path class="cls-1" d="M5.41,33.61a.31.31,0,1,0,0-.62.31.31,0,1,0,0,.62Z"/><path class="cls-1" d="M16.29,36h0l0,0h0v0h0s0,0,0,0v0l0,0Zm0,0h0s0,0,0,0h0v0Z"/><path class="cls-1" d="M16.34,36h0s0,0,0,0h0s0,0,0,0,0,0,0,0h0v0h0a0,0,0,0,0,0,0h0a0,0,0,0,0,0,0h0v0s0,0,0,0h0v0Z"/><path class="cls-1" d="M16.45,36h0l0,.05h0l0,0h0l0,0h0l0-.05h0v0h0v0h0v0h0l0,0h0Z"/><path class="cls-1" d="M16.45,36s0,0,0,0h0s0,0,0,0a0,0,0,0,1,0,0,0,0,0,0,1,0,0s0,0-.05,0Zm0,0h0s0,0,0,0h0s0,0,0,0Z"/><path class="cls-1" d="M16.51,36h0s0,0,0,0h0s0,0,0,0h0v0h0Z"/><path class="cls-1" d="M36.4,12.44H24.23v9.3a2.21,2.21,0,0,0,1,2l4.67,3a.57.57,0,0,0,.43.19.56.56,0,0,0,.38-.14l4.75-3a2.21,2.21,0,0,0,1-2v-9.3Zm-.35,9.42a2.05,2.05,0,0,1-.79,1.62L30.68,26.4h0a.52.52,0,0,1-.35.13.57.57,0,0,1-.36-.13l-4.58-2.92a2.12,2.12,0,0,1-.79-1.62V12.77H36.05v9.09Z"/><path class="cls-1" d="M32,26l.15-.07L32,26Z"/><path class="cls-1" d="M22.78,38.7l-1.15.13v-.07c.22,0,.28,0,.27-.15a1.62,1.62,0,0,0-.21-.38l-.79.1a1.87,1.87,0,0,0-.12.4c0,.11.19.1.31.09v.08l-.72.08v-.07c.19,0,.23-.16.31-.39l.6-1.72h.1l1,1.47c.2.3.27.39.44.37v.07Zm-1.16-.58-.44-.67-.25.76.69-.09Z"/><path class="cls-1" d="M42.92,34.34a1.85,1.85,0,0,0-1.18-1.09,1.54,1.54,0,0,0-1.52.39c-.63.51-.2,1.35-.18,2,0,.14,0,.25-.12.32-2.53-.23-4.89-.87-7.4-1.13-.58-.1-1.16-.07-1.71-.19l-.7-.07a29.49,29.49,0,0,0-6.41.72c-.43.14-.92.17-1.36.33-.31,0-.57.18-.87.09l-.58.13a.42.42,0,0,1-.19,0c-.28-.72.56-1.16.3-1.86a1.29,1.29,0,0,0-1.21-.72A1.45,1.45,0,0,0,18.4,34c-.4.88.1,1.79.26,2.65,0,.29.28.6,0,.83a2.35,2.35,0,0,0-2-.4c-.21.1-.6,0-.7.21a5,5,0,0,0,2.55.31.24.24,0,0,1,.26,0c.07.46-.09,1.07.19,1.48a1.79,1.79,0,0,0,1.34.58,20.72,20.72,0,0,0,4.51-.9c.23,0,.4-.14.64-.14A12.76,12.76,0,0,1,28,38.32a4.48,4.48,0,0,0-.73,1.58c-.21.47.37.54.54.81a14.86,14.86,0,0,0-1.43.74,18.52,18.52,0,0,0-3.11.51c0,.22.37.15.4.38s-.21.18-.33.27,0,.12.11.14c.1-.13.33,0,.43-.16.35,0,.65-.11,1-.12a3.46,3.46,0,0,0,.89-.36c.37-.1.59-.35,1-.45s1-.18,1.48-.21v.1c-.4.65-.82,1.32-1.23,1.94a.19.19,0,0,0,.12.28.89.89,0,0,0,.68-.11,18.8,18.8,0,0,0,1-1.88,2.59,2.59,0,0,1,1-1.32c.07,0,.17-.14.24,0a7.59,7.59,0,0,0-.83,1.23,1.46,1.46,0,0,0,.26,1.53c.21.17.52.12.8.14.68-.35,1.55.21,2.08-.46.31,0,.36.32.54.49s.61.39.91.18c0-.19-.23-.37-.34-.55-.21-.37-.47-.67-.66-1a3.64,3.64,0,0,1-.28-.65,5.1,5.1,0,0,0,.94.37,6.11,6.11,0,0,1,1,.28,3,3,0,0,0,.87.67c.44.21.92.24,1.38.42.17,0,.43.16.56,0a.7.7,0,0,0-.26-.19c-.06-.23.31-.11.43-.28a.26.26,0,0,0-.2-.14c-.25-.13-.87-.18-1-.27a3.57,3.57,0,0,1-.61-.19c-1.05,0-1.62-.95-2.46-1.3.19-.18.49-.32.61-.58a1,1,0,0,0,0-.93c-.15-.55-.85-.48-1.25-.78l.05-.05a6.78,6.78,0,0,1,1.88.25c1.68.22,3.23.86,5,.89,1,0,2.16.06,2.63-.88.09-.54.2-1.09.28-1.63.21-.88.79-1.69.7-2.66Zm-18.85,8-.24-.23c.12-.16.38-.07.57-.17a3.14,3.14,0,0,1,1.49-.22,4.16,4.16,0,0,1-1.82.62ZM35,42.08a7.48,7.48,0,0,0,1.86.44c0,.24-.48,0-.43.35a4.07,4.07,0,0,1-1.57-.74s.07-.07.14-.05ZM18.59,34.61a1.25,1.25,0,0,1,.42-.88,1.47,1.47,0,0,1,1.38.05.69.69,0,0,1,.28.34.81.81,0,0,1-.27.79h-.17a2,2,0,0,1,.1-.79c0-.22-.19-.23-.33-.32a1,1,0,0,0-.78.18.79.79,0,0,0-.23.77c.12.19,0,.45.09.67l0,.07a1.1,1.1,0,0,1-.44-.88Zm.82.5c.26.19.63.11.94.16a.67.67,0,0,1-.09.6c-.29-.07-.68,0-.83-.32,0-.12-.06-.3,0-.44Zm-.05-.59c.05-.14,0-.35.19-.39s.31,0,.33.11a3,3,0,0,1-.09.61c-.24,0-.36-.12-.43-.33Zm8.18,5.64a1.93,1.93,0,0,1,.56-1.58,1,1,0,0,1,.75,0c-.45.12-1,.22-1.13.8,0,.23,0,.36.05.55s.63.19.87.46a.24.24,0,0,1-.15.21,7,7,0,0,1-.95-.48Zm-.62,1.22c.41-.18.85-.55,1.32-.39a2.44,2.44,0,0,1-1.32.39Zm1.65.17a12.89,12.89,0,0,1-.85,1.65c0,.09-.18.11-.28.13,0-.25.24-.44.35-.65a14.31,14.31,0,0,1,.89-1.44c.1.1-.11.17-.11.31Zm.44-1v.07h0v-.09h.08a.12.12,0,0,0-.08,0Zm-.16-.47a5.3,5.3,0,0,1-.83-.21c-.18-.18,0-.37,0-.57a.89.89,0,0,1,1.27-.23,1.82,1.82,0,0,1-.44,1Zm.39,0a2.56,2.56,0,0,1,.28-.74,1.6,1.6,0,0,1-.28.74Zm.19-1.43c-.23-.05-.35-.31-.59-.31a1.33,1.33,0,0,1,.66,0c.09.12-.05.23-.07.33Zm.21.53h0V39h0v.19Zm0,.81c0-.07,0-.16.05-.25s.17.07.21.13a.27.27,0,0,1-.26.12Zm.26-1.09a1.89,1.89,0,0,1,.26-.65,1,1,0,0,1,.47.07c0,.35.47.83,0,1.12-.16.08-.38.23-.56.08a.5.5,0,0,1-.17-.62Zm1.27-.49c0-.16.16,0,.23-.11l.54,0c-.28,0-.63.61-.77.07Zm.88.23c-.21.07-.37.31-.58.36a.7.7,0,0,1,.58-.36Zm-.74,1.09v0h0v0Zm0,1.07s0,.09,0,.12l-.4-.32a.45.45,0,0,1,.44.2Zm-.47-.55a.14.14,0,0,1,.15,0ZM30.65,40c.07-.11.16-.26.28-.26l0,0a.9.9,0,0,1-.31.21Zm-.4,0h-.07l.1-.1c.06,0,0,.07,0,.1Zm.05.67c.23-.24.44.14.53.34.26.38.94.73.68,1.26-.34.3-.86,0-1.23.25-.19,0-.52,0-.62-.16a10,10,0,0,1,.64-1.69Zm-.49.34.09-.14a7.13,7.13,0,0,1-.58,1.26c-.1-.42.34-.75.49-1.12ZM30.58,43c-.33,0-.84.21-1.15-.07,0-.14-.14-.21-.12-.35.28-.11.52.22.78,0a8.29,8.29,0,0,1,1.22,0c.2.06.49-.31.53.06-.14.58-.84.17-1.26.35Zm1-2.53v-.06h0v.06Zm.11,1.1c0,.18.19.25.09.41a.54.54,0,0,1-.09-.41Zm.49,1.06-.09,0c-.09-.07-.05-.26,0-.37.1.09.19.22.12.34Zm.87.42c0,.05-.11.05-.14,0A9.43,9.43,0,0,1,31.82,41l.07,0c.42.69.75,1.44,1.17,2.11Zm.65-1.62a.07.07,0,0,0,0,.07A2,2,0,0,1,32.45,41l0-.09a3.55,3.55,0,0,1,1.28.56Zm-.46-2.33c.21,0,.23.28.25.45a.93.93,0,0,1-.6.86.9.9,0,0,1-.68.07,1.11,1.11,0,0,0,1.05-.59l0-.79Zm-.38-.08c.08.25.24.48.15.78s-.52.33-.83.4a.52.52,0,0,1-.4-.12.22.22,0,0,0-.07-.18c.05-.22-.41-.45-.09-.65s.94-.86,1.24-.23Zm8.87-1.28c-.14.18,0,.46-.2.62,0,.31-.26.47-.49.59-2.07.46-4.12-.24-6.12-.59a21.3,21.3,0,0,0-9-.14,39.61,39.61,0,0,0-3.94.93,5.78,5.78,0,0,1-2.45,0c-.62-.3-.36-1.11-.55-1.67a11.77,11.77,0,0,0-.14-1.21.93.93,0,0,1-.07-.46c.26,0,.52.23.8.3a10.85,10.85,0,0,0,4.14-.44,31,31,0,0,1,4-.62,26.93,26.93,0,0,1,4.68.16c.48,0,.9.14,1.37.18,1,.12,1.89.38,2.89.46a3.79,3.79,0,0,0,.52.08c1.57.25,3.33.69,4.83,0a13.74,13.74,0,0,1-.34,1.83Zm-.49-2.14c0,.28-.25.21-.39.31h-.42a1,1,0,0,1,0-.49,3.22,3.22,0,0,1,.86.18Zm-.2-.44c.2-.2,0-1.3.49-.58,0,.14,0,.35-.12.45s-.23.22-.37.13ZM42.47,35a1,1,0,0,1-.75.6c0-.42.4-.72.26-1.2a1.07,1.07,0,0,0-1.1-.35c-.16.11-.09.28-.14.44l-.07.58c-.35,0-.37-.31-.47-.56a1,1,0,0,1,.54-.91,1.16,1.16,0,0,1,1,0,.79.79,0,0,1,.58.37c.26.25.19.69.14,1Z"/><path class="cls-1" d="M70.65,20.69H67.93l-.32.75a1.53,1.53,0,0,0-.16.61.5.5,0,0,0,.26.48,2.13,2.13,0,0,0,.75.14v.21H65.9v-.21a1.19,1.19,0,0,0,.69-.34,4.94,4.94,0,0,0,.65-1.17L70,15h.11l2.78,6.31a3.66,3.66,0,0,0,.65,1.13.88.88,0,0,0,.54.21v.21H70.35v-.21h.15a1.1,1.1,0,0,0,.63-.13.29.29,0,0,0,.13-.26.76.76,0,0,0,0-.21s-.07-.18-.18-.42l-.4-1Zm-.2-.42-1.14-2.65-1.18,2.65Z"/><path class="cls-1" d="M78.79,17.57v4.15a1.61,1.61,0,0,0,.11.76.64.64,0,0,0,.46.19v.21H77.2v-.71a2.8,2.8,0,0,1-.76.66,1.73,1.73,0,0,1-.85.21,1.28,1.28,0,0,1-.8-.28,1.37,1.37,0,0,1-.47-.64,4.77,4.77,0,0,1-.12-1.29V18.72a1.39,1.39,0,0,0-.11-.74.64.64,0,0,0-.46-.2v-.21h2.16V21.2a3.42,3.42,0,0,0,0,.73.58.58,0,0,0,.17.25.44.44,0,0,0,.28.08.69.69,0,0,0,.37-.1,2.38,2.38,0,0,0,.54-.6V18.72a1.51,1.51,0,0,0-.11-.74.68.68,0,0,0-.46-.2v-.21Z"/><path class="cls-1" d="M83.07,17.42l.09,1.81H83a3,3,0,0,0-.73-1.1,1.19,1.19,0,0,0-.73-.29.54.54,0,0,0-.4.16.46.46,0,0,0-.16.35.43.43,0,0,0,.11.3,5.9,5.9,0,0,0,1,.8,3.83,3.83,0,0,1,1.1,1,1.5,1.5,0,0,1,.27.88,1.89,1.89,0,0,1-.23.87,1.5,1.5,0,0,1-.62.65,1.79,1.79,0,0,1-.89.23,3.43,3.43,0,0,1-1-.24.66.66,0,0,0-.23-.07c-.12,0-.23.1-.31.29H80l-.09-1.91h.2a2.54,2.54,0,0,0,.69,1.13,1.4,1.4,0,0,0,.85.37.6.6,0,0,0,.44-.17.52.52,0,0,0,.18-.4.71.71,0,0,0-.17-.47,4.46,4.46,0,0,0-.76-.61,6.12,6.12,0,0,1-1.13-.91,1.61,1.61,0,0,1-.37-1,1.67,1.67,0,0,1,.42-1.11,1.52,1.52,0,0,1,1.22-.5,1.8,1.8,0,0,1,.84.21.51.51,0,0,0,.25.09.27.27,0,0,0,.16,0,1.07,1.07,0,0,0,.2-.25Z"/><path class="cls-1" d="M85.88,15.63v1.94h1.26v.56H85.88v3.28a2.47,2.47,0,0,0,0,.59.48.48,0,0,0,.15.22.4.4,0,0,0,.2.08c.25,0,.48-.19.7-.56l.17.12A1.55,1.55,0,0,1,85.65,23a1.33,1.33,0,0,1-.86-.28,1.24,1.24,0,0,1-.44-.63,5,5,0,0,1-.06-1V18.13H83.6v-.19a7.19,7.19,0,0,0,1.22-1.07,6.55,6.55,0,0,0,.87-1.24Z"/><path class="cls-1" d="M89.73,17.57v1.2a3.67,3.67,0,0,1,.93-1.08,1.28,1.28,0,0,1,.76-.28.69.69,0,0,1,.51.2.78.78,0,0,1,.19.55.82.82,0,0,1-.19.59.56.56,0,0,1-.44.21.74.74,0,0,1-.52-.19l-.26-.22a.28.28,0,0,0-.13,0,.51.51,0,0,0-.32.12,1.27,1.27,0,0,0-.35.55,4,4,0,0,0-.18,1.22V22a1.19,1.19,0,0,0,0,.41.45.45,0,0,0,.2.23,1.29,1.29,0,0,0,.45.08v.21H87.56v-.21a.63.63,0,0,0,.47-.19,1.78,1.78,0,0,0,.12-.85V18.7a2.26,2.26,0,0,0,0-.58.44.44,0,0,0-.17-.24,1,1,0,0,0-.38-.1v-.21Z"/><path class="cls-1" d="M95,22.09a2.78,2.78,0,0,1-1.74.86,1,1,0,0,1-.75-.3,1,1,0,0,1-.3-.74,1.44,1.44,0,0,1,.52-1.09A9.62,9.62,0,0,1,95,19.52V19a2.24,2.24,0,0,0-.07-.75.58.58,0,0,0-.24-.28.73.73,0,0,0-.41-.12,1.07,1.07,0,0,0-.61.17.31.31,0,0,0-.14.24.47.47,0,0,0,.16.29.73.73,0,0,1,.21.47.63.63,0,0,1-.21.48.73.73,0,0,1-.54.19.9.9,0,0,1-.6-.21.67.67,0,0,1-.24-.51,1.17,1.17,0,0,1,.33-.78,2,2,0,0,1,.9-.57,3.78,3.78,0,0,1,1.2-.2,1.93,1.93,0,0,1,1.19.33,1.48,1.48,0,0,1,.58.69,5.27,5.27,0,0,1,.08,1.09v2.06a3.63,3.63,0,0,0,0,.46.28.28,0,0,0,.09.14.2.2,0,0,0,.13,0q.15,0,.3-.21l.17.14a2.16,2.16,0,0,1-.59.61,1.23,1.23,0,0,1-.69.19,1.09,1.09,0,0,1-.71-.21,1,1,0,0,1-.31-.65Zm0-.41V19.9a3.23,3.23,0,0,0-1,.87,1,1,0,0,0-.22.61.62.62,0,0,0,.19.46.47.47,0,0,0,.39.16,1.11,1.11,0,0,0,.66-.32Z"/><path class="cls-1" d="M99.64,15.18v6.6a1.37,1.37,0,0,0,.13.72.71.71,0,0,0,.51.17v.21H97.42v-.21a.69.69,0,0,0,.52-.2,1.35,1.35,0,0,0,.11-.69v-5.5a1.17,1.17,0,0,0-.13-.7.67.67,0,0,0-.5-.19v-.21Z"/><path class="cls-1" d="M102.07,15a.84.84,0,0,1,.62.26.88.88,0,1,1-1.24,1.24.89.89,0,0,1,0-1.24.85.85,0,0,1,.62-.26Zm.79,2.57v4.21a1.37,1.37,0,0,0,.13.72.71.71,0,0,0,.51.17v.21h-2.86v-.21a.69.69,0,0,0,.52-.2,1.22,1.22,0,0,0,.12-.69v-3.1a1.23,1.23,0,0,0-.14-.72.71.71,0,0,0-.5-.18v-.21Z"/><path class="cls-1" d="M106.6,22.09a2.83,2.83,0,0,1-1.74.86,1,1,0,0,1-.76-.3,1,1,0,0,1-.3-.74,1.47,1.47,0,0,1,.52-1.09,9.75,9.75,0,0,1,2.28-1.3V19a2.24,2.24,0,0,0-.07-.75.58.58,0,0,0-.24-.28.73.73,0,0,0-.41-.12,1,1,0,0,0-.61.17.3.3,0,0,0-.15.24.53.53,0,0,0,.16.29.7.7,0,0,1,.22.47.63.63,0,0,1-.21.48.76.76,0,0,1-.54.19.88.88,0,0,1-.6-.21.67.67,0,0,1-.24-.51,1.21,1.21,0,0,1,.32-.78,2.12,2.12,0,0,1,.91-.57,3.68,3.68,0,0,1,1.2-.2,1.93,1.93,0,0,1,1.19.33,1.45,1.45,0,0,1,.57.69,4.11,4.11,0,0,1,.08,1.09v2.06a2.06,2.06,0,0,0,0,.46.28.28,0,0,0,.09.14.18.18,0,0,0,.13,0c.1,0,.19-.07.3-.21l.17.14a2.16,2.16,0,0,1-.59.61,1.23,1.23,0,0,1-.69.19,1.09,1.09,0,0,1-.71-.21,1,1,0,0,1-.31-.65Zm0-.41V19.9a3.23,3.23,0,0,0-1,.87,1,1,0,0,0-.22.61.65.65,0,0,0,.18.46.51.51,0,0,0,.4.16,1.11,1.11,0,0,0,.66-.32Z"/><path class="cls-1" d="M111.18,17.57v.69a3,3,0,0,1,.79-.64,1.59,1.59,0,0,1,.8-.21,1.3,1.3,0,0,1,.86.29,1.32,1.32,0,0,1,.45.71,5.55,5.55,0,0,1,.09,1.24v2.07a1.61,1.61,0,0,0,.11.76.65.65,0,0,0,.47.19v.21h-2.69v-.21a.53.53,0,0,0,.43-.25,1.43,1.43,0,0,0,.1-.7V19.36a4.11,4.11,0,0,0,0-.82.51.51,0,0,0-.18-.26.39.39,0,0,0-.27-.1c-.32,0-.63.23-.91.7v2.84a1.59,1.59,0,0,0,.11.75.56.56,0,0,0,.42.2v.21H109v-.21a.66.66,0,0,0,.48-.21,1.66,1.66,0,0,0,.1-.74v-3a1.36,1.36,0,0,0-.12-.74.64.64,0,0,0-.46-.2v-.21Z"/><path class="cls-1" d="M125.19,15v2.71H125A3.44,3.44,0,0,0,123.84,16a2.64,2.64,0,0,0-1.66-.58,2.11,2.11,0,0,0-1.43.49,2.56,2.56,0,0,0-.82,1.35,7.06,7.06,0,0,0-.23,1.78A6.33,6.33,0,0,0,120,21a2.2,2.2,0,0,0,.84,1.23,2.43,2.43,0,0,0,1.38.39,2.76,2.76,0,0,0,.57-.06,4,4,0,0,0,.6-.18v-1.6a1.73,1.73,0,0,0-.06-.58A.56.56,0,0,0,123,20a.88.88,0,0,0-.47-.11h-.2v-.21h3.74v.21a1.62,1.62,0,0,0-.6.12.54.54,0,0,0-.26.29,1.67,1.67,0,0,0,0,.52v1.6a7.4,7.4,0,0,1-1.53.5,8.12,8.12,0,0,1-1.66.17,4.85,4.85,0,0,1-1.82-.3,4.66,4.66,0,0,1-1.27-.78,3.58,3.58,0,0,1-.86-1.1,3.73,3.73,0,0,1-.4-1.75,3.93,3.93,0,0,1,1.22-2.93,4.18,4.18,0,0,1,3.07-1.2,5.41,5.41,0,0,1,1,.09,5.7,5.7,0,0,1,.81.26,3.3,3.3,0,0,0,.66.21.41.41,0,0,0,.29-.11A1,1,0,0,0,125,15Z"/><path class="cls-1" d="M128.88,17.41a2.4,2.4,0,0,1,1.28.36,2.32,2.32,0,0,1,.91,1,3.41,3.41,0,0,1,.31,1.44,3,3,0,0,1-.58,1.89,2.25,2.25,0,0,1-1.91.92,2.2,2.2,0,0,1-1.84-.84,3.12,3.12,0,0,1-.65-1.95,3.16,3.16,0,0,1,.66-2,2.2,2.2,0,0,1,1.82-.85Zm0,.41a.66.66,0,0,0-.5.22,1.46,1.46,0,0,0-.27.86,16.59,16.59,0,0,0-.07,1.79,8,8,0,0,0,.08,1.13,1.12,1.12,0,0,0,.27.61.64.64,0,0,0,.47.21.59.59,0,0,0,.42-.14,1,1,0,0,0,.3-.54,13.89,13.89,0,0,0,.11-2.18,5.42,5.42,0,0,0-.11-1.32,1,1,0,0,0-.32-.52.56.56,0,0,0-.38-.12Z"/><path class="cls-1" d="M133.88,23l-1.79-4.12a4,4,0,0,0-.5-.94.73.73,0,0,0-.39-.2v-.21H134v.21a.47.47,0,0,0-.36.1.38.38,0,0,0-.14.29,2.69,2.69,0,0,0,.25.79l.88,2,.69-1.72a3.33,3.33,0,0,0,.3-1,.33.33,0,0,0-.13-.28.68.68,0,0,0-.44-.13v-.21h1.73v.21a.82.82,0,0,0-.41.19,3.59,3.59,0,0,0-.47.9L134.15,23Z"/><path class="cls-1" d="M141,20h-2.91a2.78,2.78,0,0,0,.57,1.67,1.16,1.16,0,0,0,.94.47,1.15,1.15,0,0,0,.62-.18,2.53,2.53,0,0,0,.59-.69l.19.12a3.08,3.08,0,0,1-.95,1.25,2.09,2.09,0,0,1-1.21.37,2,2,0,0,1-1.78-.91,3.19,3.19,0,0,1-.49-1.82,3,3,0,0,1,.71-2.11,2.24,2.24,0,0,1,1.69-.79,1.77,1.77,0,0,1,1.39.67,3,3,0,0,1,.64,2Zm-1.39-.38a5.54,5.54,0,0,0-.1-1.25,1.07,1.07,0,0,0-.31-.52.51.51,0,0,0-.32-.1.58.58,0,0,0-.48.29,2.53,2.53,0,0,0-.33,1.39v.19Z"/><path class="cls-1" d="M143.49,17.57v1.2a3.67,3.67,0,0,1,.93-1.08,1.3,1.3,0,0,1,.76-.28.69.69,0,0,1,.51.2.74.74,0,0,1,.19.55.82.82,0,0,1-.19.59.56.56,0,0,1-.44.21.76.76,0,0,1-.52-.19l-.26-.22a.31.31,0,0,0-.13,0,.51.51,0,0,0-.32.12,1.27,1.27,0,0,0-.35.55,4,4,0,0,0-.18,1.22V22a1.19,1.19,0,0,0,0,.41.45.45,0,0,0,.2.23,1.34,1.34,0,0,0,.45.08v.21h-2.87v-.21a.61.61,0,0,0,.47-.19,1.78,1.78,0,0,0,.12-.85V18.7a2.26,2.26,0,0,0,0-.58.44.44,0,0,0-.17-.24,1.06,1.06,0,0,0-.38-.1v-.21Z"/><path class="cls-1" d="M148.38,17.57v.69a3,3,0,0,1,.78-.64,1.63,1.63,0,0,1,.81-.21,1.31,1.31,0,0,1,.86.29,1.45,1.45,0,0,1,.45.71,5.55,5.55,0,0,1,.09,1.24v2.07a1.61,1.61,0,0,0,.11.76.62.62,0,0,0,.46.19v.21h-2.68v-.21a.55.55,0,0,0,.43-.25,1.62,1.62,0,0,0,.09-.7V19.36a3.43,3.43,0,0,0-.05-.82.44.44,0,0,0-.17-.26.39.39,0,0,0-.27-.1c-.33,0-.63.23-.91.7v2.84a1.59,1.59,0,0,0,.11.75.52.52,0,0,0,.41.2v.21h-2.68v-.21a.68.68,0,0,0,.48-.21,1.72,1.72,0,0,0,.09-.74v-3a1.39,1.39,0,0,0-.11-.74.66.66,0,0,0-.46-.2v-.21Z"/><path class="cls-1" d="M154.53,17.57v.7a2.91,2.91,0,0,1,.8-.66,1.74,1.74,0,0,1,.82-.2,1.36,1.36,0,0,1,1.39,1,3.3,3.3,0,0,1,.87-.74,1.83,1.83,0,0,1,.87-.23,1.4,1.4,0,0,1,.88.26,1.32,1.32,0,0,1,.45.64,4.14,4.14,0,0,1,.13,1.24v2.17a1.61,1.61,0,0,0,.11.76.66.66,0,0,0,.46.19v.21h-2.74v-.21a.6.6,0,0,0,.48-.25,1.46,1.46,0,0,0,.1-.7V19.44a4,4,0,0,0-.06-.9.46.46,0,0,0-.18-.29.45.45,0,0,0-.28-.09.82.82,0,0,0-.49.18,2.17,2.17,0,0,0-.51.53v2.85a1.53,1.53,0,0,0,.1.72.56.56,0,0,0,.5.23v.21h-2.75v-.21a.61.61,0,0,0,.35-.11.48.48,0,0,0,.17-.23,2.68,2.68,0,0,0,0-.61V19.44a5,5,0,0,0,0-.9.61.61,0,0,0-.2-.29.42.42,0,0,0-.28-.1.79.79,0,0,0-.42.12,2.55,2.55,0,0,0-.56.6v2.85a1.73,1.73,0,0,0,.1.74.6.6,0,0,0,.47.21v.21h-2.73v-.21a.63.63,0,0,0,.47-.21,1.52,1.52,0,0,0,.1-.74v-3a1.51,1.51,0,0,0-.11-.74.68.68,0,0,0-.46-.2v-.21Z"/><path class="cls-1" d="M166,20h-2.91a2.78,2.78,0,0,0,.56,1.67,1.19,1.19,0,0,0,.95.47,1.09,1.09,0,0,0,.61-.18,2.38,2.38,0,0,0,.6-.69l.19.12a3.17,3.17,0,0,1-.95,1.25,2.09,2.09,0,0,1-1.21.37,2,2,0,0,1-1.79-.91,3.27,3.27,0,0,1-.48-1.82,3,3,0,0,1,.71-2.11,2.24,2.24,0,0,1,1.69-.79,1.79,1.79,0,0,1,1.39.67,3,3,0,0,1,.64,2Zm-1.39-.38a5.54,5.54,0,0,0-.1-1.25,1.07,1.07,0,0,0-.31-.52.53.53,0,0,0-.32-.1.55.55,0,0,0-.48.29,2.53,2.53,0,0,0-.33,1.39v.19Z"/><path class="cls-1" d="M168.4,17.57v.69a2.86,2.86,0,0,1,.78-.64,1.63,1.63,0,0,1,.81-.21,1.27,1.27,0,0,1,.85.29,1.4,1.4,0,0,1,.46.71,5.55,5.55,0,0,1,.09,1.24v2.07a1.61,1.61,0,0,0,.11.76.62.62,0,0,0,.46.19v.21h-2.68v-.21a.55.55,0,0,0,.43-.25,1.62,1.62,0,0,0,.09-.7V19.36a4.11,4.11,0,0,0-.05-.82.41.41,0,0,0-.18-.26.37.37,0,0,0-.26-.1c-.33,0-.63.23-.91.7v2.84a1.59,1.59,0,0,0,.11.75.52.52,0,0,0,.41.2v.21h-2.68v-.21a.63.63,0,0,0,.47-.21,1.52,1.52,0,0,0,.1-.74v-3a1.51,1.51,0,0,0-.11-.74.68.68,0,0,0-.46-.2v-.21Z"/><path class="cls-1" d="M174.22,15.63v1.94h1.26v.56h-1.26v3.28a2.47,2.47,0,0,0,0,.59.48.48,0,0,0,.15.22.37.37,0,0,0,.2.08c.24,0,.48-.19.7-.56l.17.12A1.55,1.55,0,0,1,174,23a1.31,1.31,0,0,1-.86-.28,1.33,1.33,0,0,1-.45-.63,6.38,6.38,0,0,1-.05-1V18.13h-.69v-.19a7.1,7.1,0,0,0,1.21-1.07,6.16,6.16,0,0,0,.88-1.24Z"/><rect class="cls-1" x="65.9" y="27.98" width="129.97" height="0.96"/><path class="cls-1" d="M72.81,33.4v2.43h-.2a2.58,2.58,0,0,0-.84-1.46,2.16,2.16,0,0,0-1.41-.5,2.1,2.1,0,0,0-1.2.37,2.22,2.22,0,0,0-.8,1A4.56,4.56,0,0,0,68,37a5.7,5.7,0,0,0,.24,1.71A2.26,2.26,0,0,0,69,39.84a2.06,2.06,0,0,0,1.31.39,2.53,2.53,0,0,0,1.2-.29,4.16,4.16,0,0,0,1.17-1v.6a3.9,3.9,0,0,1-1.23.89,3.81,3.81,0,0,1-1.49.27,4.41,4.41,0,0,1-2-.44A3.21,3.21,0,0,1,66.65,39a3.65,3.65,0,0,1-.47-1.79,3.7,3.7,0,0,1,.52-1.9,3.65,3.65,0,0,1,1.42-1.39A3.82,3.82,0,0,1,70,33.4a4.39,4.39,0,0,1,1.56.32,2.11,2.11,0,0,0,.6.19.38.38,0,0,0,.28-.12.64.64,0,0,0,.16-.39Z"/><path class="cls-1" d="M74.49,33.4a.79.79,0,0,1,.8.8.79.79,0,0,1-.23.56.81.81,0,0,1-.57.23.79.79,0,0,1-.79-.79.81.81,0,0,1,.23-.57.79.79,0,0,1,.56-.23Zm.73,2.33v3.82a1.21,1.21,0,0,0,.11.66.67.67,0,0,0,.47.16v.18H73.19v-.18a.64.64,0,0,0,.48-.19,1.16,1.16,0,0,0,.1-.63V36.74a1.12,1.12,0,0,0-.12-.65.64.64,0,0,0-.46-.17v-.19Z"/><path class="cls-1" d="M78.19,40.7,76.56,37a4,4,0,0,0-.45-.86.62.62,0,0,0-.36-.18v-.19h2.57v.19A.47.47,0,0,0,78,36a.35.35,0,0,0-.13.27,2.36,2.36,0,0,0,.23.72l.79,1.81.64-1.57a3,3,0,0,0,.27-.94.31.31,0,0,0-.12-.26.63.63,0,0,0-.4-.12v-.19h1.57v.19a.67.67,0,0,0-.37.17,3.56,3.56,0,0,0-.43.82L78.43,40.7Z"/><path class="cls-1" d="M82.46,33.4a.79.79,0,0,1,.57.23.81.81,0,0,1,.23.57.76.76,0,0,1-.24.56.8.8,0,0,1-1.12,0,.79.79,0,0,1-.23-.56.81.81,0,0,1,.23-.57.77.77,0,0,1,.56-.23Zm.72,2.33v3.82a1.18,1.18,0,0,0,.12.66.67.67,0,0,0,.47.16v.18H81.16v-.18a.64.64,0,0,0,.48-.19,1.16,1.16,0,0,0,.1-.63V36.74a1.12,1.12,0,0,0-.12-.65.64.64,0,0,0-.46-.17v-.19Z"/><path class="cls-1" d="M86,33.56v6a1.18,1.18,0,0,0,.12.66.67.67,0,0,0,.47.16v.18H84v-.18a.64.64,0,0,0,.48-.19,1.16,1.16,0,0,0,.1-.63v-5a1.08,1.08,0,0,0-.12-.64.64.64,0,0,0-.46-.17v-.19Z"/><path class="cls-1" d="M93.18,38.56H90.71l-.29.68a1.51,1.51,0,0,0-.15.57.46.46,0,0,0,.24.43,1.93,1.93,0,0,0,.68.12v.19H88.87v-.19a1,1,0,0,0,.62-.31,4.28,4.28,0,0,0,.6-1l2.5-5.58h.09l2.53,5.73a3.68,3.68,0,0,0,.59,1,.8.8,0,0,0,.49.18v.19H92.91v-.19h.14a1,1,0,0,0,.57-.11.26.26,0,0,0,.12-.24.68.68,0,0,0,0-.19s-.06-.16-.16-.38l-.37-.88ZM93,38.18l-1-2.41-1.07,2.41Z"/><path class="cls-1" d="M97.58,40.7,96,37a3.9,3.9,0,0,0-.46-.86.62.62,0,0,0-.35-.18v-.19h2.56v.19a.47.47,0,0,0-.33.09.37.37,0,0,0-.12.27,2.25,2.25,0,0,0,.22.72l.8,1.81.63-1.57a3,3,0,0,0,.27-.94.3.3,0,0,0-.11-.26.66.66,0,0,0-.41-.12v-.19h1.58v.19a.64.64,0,0,0-.37.17,3.44,3.44,0,0,0-.44.82L97.82,40.7Z"/><path class="cls-1" d="M101.91,33.4a.79.79,0,0,1,.8.8.76.76,0,0,1-.24.56.79.79,0,0,1-.56.23.81.81,0,0,1-.57-.23.79.79,0,0,1-.23-.56.79.79,0,0,1,.8-.8Zm.72,2.33v3.82a1.18,1.18,0,0,0,.12.66.64.64,0,0,0,.46.16v.18h-2.6v-.18a.62.62,0,0,0,.47-.19,1.13,1.13,0,0,0,.11-.63V36.74a1.12,1.12,0,0,0-.12-.65.66.66,0,0,0-.46-.17v-.19Z"/><path class="cls-1" d="M106.14,39.84a2.53,2.53,0,0,1-1.58.78.92.92,0,0,1-1-.95,1.33,1.33,0,0,1,.47-1,9,9,0,0,1,2.07-1.17V37a2.25,2.25,0,0,0-.06-.68.52.52,0,0,0-.22-.25.7.7,0,0,0-.37-.11,1,1,0,0,0-.56.15.25.25,0,0,0-.13.22.45.45,0,0,0,.14.26.7.7,0,0,1,.2.43.58.58,0,0,1-.19.44.71.71,0,0,1-.49.17.8.8,0,0,1-.55-.19.63.63,0,0,1-.21-.46,1,1,0,0,1,.29-.71,1.84,1.84,0,0,1,.82-.52,3.32,3.32,0,0,1,1.09-.18,1.85,1.85,0,0,1,1.09.29,1.38,1.38,0,0,1,.52.63,4.11,4.11,0,0,1,.07,1v1.87a1.74,1.74,0,0,0,0,.42.24.24,0,0,0,.07.12.19.19,0,0,0,.12,0c.09,0,.18-.06.28-.19l.15.12a1.82,1.82,0,0,1-.54.56,1.18,1.18,0,0,1-.62.17.94.94,0,0,1-.64-.19.86.86,0,0,1-.29-.59Zm0-.37V37.85a3.13,3.13,0,0,0-.93.79,1,1,0,0,0-.2.56.61.61,0,0,0,.17.42.49.49,0,0,0,.36.14,1,1,0,0,0,.6-.29Z"/><path class="cls-1" d="M110.21,34v1.76h1.14v.51h-1.14v3a2.91,2.91,0,0,0,0,.54.48.48,0,0,0,.14.2.41.41,0,0,0,.18.07c.23,0,.44-.17.64-.51l.15.11a1.41,1.41,0,0,1-1.35,1,1.2,1.2,0,0,1-.78-.25,1.16,1.16,0,0,1-.41-.57,5.43,5.43,0,0,1,0-.95V36.24h-.63v-.18a6.24,6.24,0,0,0,1.11-1A6.57,6.57,0,0,0,110,34Z"/><path class="cls-1" d="M113,33.4a.79.79,0,0,1,.8.8.76.76,0,0,1-.24.56.8.8,0,0,1-1.12,0,.79.79,0,0,1-.23-.56.81.81,0,0,1,.23-.57.77.77,0,0,1,.56-.23Zm.73,2.33v3.82a1.21,1.21,0,0,0,.11.66.67.67,0,0,0,.47.16v.18h-2.61v-.18a.63.63,0,0,0,.48-.19,1.16,1.16,0,0,0,.1-.63V36.74a1.12,1.12,0,0,0-.12-.65.64.64,0,0,0-.46-.17v-.19Z"/><path class="cls-1" d="M116.72,35.59a2.29,2.29,0,0,1,1.17.32,2.06,2.06,0,0,1,.82.93,3,3,0,0,1,.28,1.31,2.74,2.74,0,0,1-.52,1.71,2,2,0,0,1-1.73.84,2,2,0,0,1-1.68-.76,3,3,0,0,1,0-3.58,2,2,0,0,1,1.65-.77Zm0,.36a.58.58,0,0,0-.45.21,1.33,1.33,0,0,0-.25.78q-.06.59-.06,1.62a6.53,6.53,0,0,0,.08,1,.91.91,0,0,0,.24.56.55.55,0,0,0,.42.19.58.58,0,0,0,.39-.13.83.83,0,0,0,.26-.49,11.41,11.41,0,0,0,.11-2,4.64,4.64,0,0,0-.1-1.2.94.94,0,0,0-.29-.48.54.54,0,0,0-.35-.11Z"/><path class="cls-1" d="M121.28,35.73v.63a2.79,2.79,0,0,1,.72-.59,1.52,1.52,0,0,1,.73-.18,1.2,1.2,0,0,1,.78.26,1.28,1.28,0,0,1,.41.65,5.31,5.31,0,0,1,.08,1.13V39.5a1.43,1.43,0,0,0,.1.7.59.59,0,0,0,.42.17v.18h-2.44v-.18a.51.51,0,0,0,.4-.23,1.57,1.57,0,0,0,.08-.64V37.36a3.45,3.45,0,0,0,0-.75.45.45,0,0,0-.16-.24.36.36,0,0,0-.24-.09c-.3,0-.57.22-.83.64V39.5a1.58,1.58,0,0,0,.1.69.55.55,0,0,0,.38.18v.18h-2.44v-.18a.59.59,0,0,0,.43-.2,1.4,1.4,0,0,0,.09-.67V36.78a1.33,1.33,0,0,0-.1-.68.63.63,0,0,0-.42-.18v-.19Z"/><path class="cls-1" d="M131.91,33.4l.06,2.33h-.21a2.42,2.42,0,0,0-.74-1.41,1.86,1.86,0,0,0-1.26-.53,1.2,1.2,0,0,0-.84.28.86.86,0,0,0-.3.65.72.72,0,0,0,.11.41,1.81,1.81,0,0,0,.48.48,11.22,11.22,0,0,0,1.12.6A5,5,0,0,1,132,37.35a2,2,0,0,1,.42,1.23,2,2,0,0,1-.68,1.51,2.46,2.46,0,0,1-1.73.63,2.53,2.53,0,0,1-.63-.07,4.59,4.59,0,0,1-.74-.25,1.05,1.05,0,0,0-.4-.1.51.51,0,0,0-.29.1.7.7,0,0,0-.24.31h-.19V38.07h.19a3.07,3.07,0,0,0,.87,1.71,2.09,2.09,0,0,0,1.4.58,1.32,1.32,0,0,0,.92-.32,1,1,0,0,0,.34-.73,1,1,0,0,0-.13-.48,1.61,1.61,0,0,0-.4-.44,5.58,5.58,0,0,0-.95-.54,9.07,9.07,0,0,1-1.37-.8,2.46,2.46,0,0,1-.64-.74,1.83,1.83,0,0,1-.23-.9,1.9,1.9,0,0,1,.62-1.42,2.14,2.14,0,0,1,1.54-.59,3,3,0,0,1,.67.08,3.43,3.43,0,0,1,.58.24,1.44,1.44,0,0,0,.49.16.29.29,0,0,0,.21-.08.94.94,0,0,0,.15-.4Z"/><path class="cls-1" d="M135.48,39.84a2.51,2.51,0,0,1-1.58.78,1,1,0,0,1-.69-.27.93.93,0,0,1-.27-.68,1.33,1.33,0,0,1,.47-1,9,9,0,0,1,2.07-1.17V37a2.25,2.25,0,0,0-.06-.68.52.52,0,0,0-.22-.25.7.7,0,0,0-.37-.11.92.92,0,0,0-.55.15.26.26,0,0,0-.14.22.42.42,0,0,0,.15.26.68.68,0,0,1,.19.43.58.58,0,0,1-.19.44.71.71,0,0,1-.49.17.78.78,0,0,1-.54-.19A.61.61,0,0,1,133,37a1.08,1.08,0,0,1,.29-.71,1.84,1.84,0,0,1,.82-.52,3.38,3.38,0,0,1,1.1-.18,1.84,1.84,0,0,1,1.08.29,1.32,1.32,0,0,1,.52.63,4.11,4.11,0,0,1,.07,1v1.87a1.74,1.74,0,0,0,0,.42.24.24,0,0,0,.07.12.19.19,0,0,0,.12,0c.09,0,.18-.06.28-.19l.15.12a1.92,1.92,0,0,1-.53.56,1.24,1.24,0,0,1-.63.17,1,1,0,0,1-.64-.19.9.9,0,0,1-.29-.59Zm0-.37V37.85a3.27,3.27,0,0,0-.93.79,1,1,0,0,0-.2.56.61.61,0,0,0,.17.42.49.49,0,0,0,.36.14,1,1,0,0,0,.6-.29Z"/><path class="cls-1" d="M139.86,36.24v3.34a1.09,1.09,0,0,0,.1.61.73.73,0,0,0,.61.18v.18h-2.84v-.18a1.13,1.13,0,0,0,.45-.07.43.43,0,0,0,.2-.2,1.77,1.77,0,0,0,.05-.52V36.24h-.7v-.51h.7v-.6A1.6,1.6,0,0,1,139,33.9a2.14,2.14,0,0,1,1.48-.5,1.53,1.53,0,0,1,.94.24.68.68,0,0,1,.31.53.56.56,0,0,1-.19.4.77.77,0,0,1-.51.17.65.65,0,0,1-.43-.14.42.42,0,0,1-.15-.31,1.12,1.12,0,0,1,0-.19,1.11,1.11,0,0,0,0-.17.21.21,0,0,0-.06-.16.29.29,0,0,0-.2-.07.34.34,0,0,0-.26.12.67.67,0,0,0-.09.4v1.51h.71v.51Z"/><path class="cls-1" d="M145,38h-2.64a2.49,2.49,0,0,0,.51,1.52,1.08,1.08,0,0,0,.85.43,1,1,0,0,0,.56-.17,2.41,2.41,0,0,0,.55-.63l.17.11a2.84,2.84,0,0,1-.87,1.14,2,2,0,0,1-2.72-.5,2.94,2.94,0,0,1-.44-1.65,2.73,2.73,0,0,1,.65-1.91,2,2,0,0,1,1.53-.72,1.65,1.65,0,0,1,1.27.6A2.74,2.74,0,0,1,145,38Zm-1.27-.34a4.7,4.7,0,0,0-.09-1.14.87.87,0,0,0-.28-.47.39.39,0,0,0-.29-.1.51.51,0,0,0-.44.27,2.26,2.26,0,0,0-.3,1.26v.18Z"/><path class="cls-1" d="M147.19,34v1.76h1.15v.51h-1.15v3a2,2,0,0,0,0,.54.35.35,0,0,0,.14.2.34.34,0,0,0,.18.07q.33,0,.63-.51l.16.11a1.41,1.41,0,0,1-1.36,1,1.2,1.2,0,0,1-.78-.25,1.13,1.13,0,0,1-.4-.57,4.54,4.54,0,0,1-.05-.95V36.24h-.63v-.18a6.16,6.16,0,0,0,1.1-1A6.06,6.06,0,0,0,147,34Z"/><path class="cls-1" d="M151.17,40.75l-1.55-3.57a5.3,5.3,0,0,0-.52-1,.93.93,0,0,0-.41-.26v-.19h2.57v.19a.62.62,0,0,0-.36.1.26.26,0,0,0-.1.21,2.52,2.52,0,0,0,.25.78l.83,1.88.56-1.46a3.75,3.75,0,0,0,.31-1.08.38.38,0,0,0-.13-.3.69.69,0,0,0-.45-.13v-.19h1.62v.19a.61.61,0,0,0-.39.19,4.67,4.67,0,0,0-.5,1.07l-1.37,3.57a8,8,0,0,1-.78,1.65,1.1,1.1,0,0,1-.89.43,1,1,0,0,1-.7-.24.8.8,0,0,1-.26-.59.71.71,0,0,1,.18-.5.6.6,0,0,1,.45-.19.55.55,0,0,1,.42.16.74.74,0,0,1,.16.51.49.49,0,0,0,0,.26.17.17,0,0,0,.12,0,.38.38,0,0,0,.26-.15,3,3,0,0,0,.48-1l.15-.4Z"/><path class="cls-1" d="M158.5,38.56H156l-.29.68a1.51,1.51,0,0,0-.15.57.46.46,0,0,0,.24.43,1.93,1.93,0,0,0,.68.12v.19h-2.32v-.19a1,1,0,0,0,.62-.31,4.28,4.28,0,0,0,.6-1l2.5-5.58h.1l2.52,5.73a3.68,3.68,0,0,0,.59,1,.81.81,0,0,0,.5.18v.19h-3.39v-.19h.14a1,1,0,0,0,.57-.11.26.26,0,0,0,.12-.24.68.68,0,0,0,0-.19s-.06-.16-.16-.38l-.37-.88Zm-.17-.38-1.05-2.41-1.07,2.41Z"/><path class="cls-1" d="M165.91,35.73v3.78a1.38,1.38,0,0,0,.1.69.59.59,0,0,0,.42.17v.18h-2v-.64a2.31,2.31,0,0,1-.69.6,1.55,1.55,0,0,1-.78.19,1.11,1.11,0,0,1-.72-.25,1.22,1.22,0,0,1-.43-.59,4.35,4.35,0,0,1-.11-1.17V36.78a1.33,1.33,0,0,0-.1-.68.61.61,0,0,0-.42-.18v-.19h2V39a3,3,0,0,0,0,.66.5.5,0,0,0,.16.23.41.41,0,0,0,.25.08.64.64,0,0,0,.33-.1,2.25,2.25,0,0,0,.5-.54V36.78a1.3,1.3,0,0,0-.11-.68.58.58,0,0,0-.41-.18v-.19Z"/><path class="cls-1" d="M168.63,34v1.76h1.14v.51h-1.14v3a2.91,2.91,0,0,0,0,.54.48.48,0,0,0,.14.2A.41.41,0,0,0,169,40c.23,0,.44-.17.64-.51l.15.11a1.41,1.41,0,0,1-1.35,1,1.2,1.2,0,0,1-.78-.25,1.07,1.07,0,0,1-.4-.57,4.26,4.26,0,0,1-.06-.95V36.24h-.63v-.18a5.91,5.91,0,0,0,1.11-1,6.57,6.57,0,0,0,.8-1.13Z"/><path class="cls-1" d="M172.05,33.56v2.79a3.14,3.14,0,0,1,.73-.59,1.53,1.53,0,0,1,.69-.17,1.14,1.14,0,0,1,.77.26,1.19,1.19,0,0,1,.43.6,4.55,4.55,0,0,1,.11,1.18v1.88a1.38,1.38,0,0,0,.1.69.58.58,0,0,0,.41.17v.18h-2.44v-.18a.54.54,0,0,0,.39-.21,1.44,1.44,0,0,0,.09-.65V37.36a2.88,2.88,0,0,0-.05-.75.45.45,0,0,0-.16-.24.36.36,0,0,0-.24-.09.64.64,0,0,0-.4.15,1.66,1.66,0,0,0-.43.49v2.59a1.57,1.57,0,0,0,.08.64.51.51,0,0,0,.4.22v.18h-2.44v-.18a.6.6,0,0,0,.43-.2,1.35,1.35,0,0,0,.09-.66v-4.9a1.3,1.3,0,0,0-.11-.68.58.58,0,0,0-.41-.18v-.19Z"/><path class="cls-1" d="M177.77,35.59a2.28,2.28,0,0,1,1.16.32,2.09,2.09,0,0,1,.83.93,3.14,3.14,0,0,1,.28,1.31,2.8,2.8,0,0,1-.52,1.71,2.05,2.05,0,0,1-1.74.84,2,2,0,0,1-1.68-.76,2.83,2.83,0,0,1-.58-1.77,2.91,2.91,0,0,1,.59-1.81,2,2,0,0,1,1.66-.77Zm0,.36a.6.6,0,0,0-.46.21,1.41,1.41,0,0,0-.25.78c0,.39-.05.93-.05,1.62a6.58,6.58,0,0,0,.07,1,1,1,0,0,0,.24.56.56.56,0,0,0,.43.19.55.55,0,0,0,.38-.13.9.9,0,0,0,.27-.49,11.77,11.77,0,0,0,.1-2,4.64,4.64,0,0,0-.1-1.2.93.93,0,0,0-.28-.48.56.56,0,0,0-.35-.11Z"/><path class="cls-1" d="M182.2,35.73v1.1a3.45,3.45,0,0,1,.84-1,1.2,1.2,0,0,1,.7-.25.58.58,0,0,1,.45.18.67.67,0,0,1,.18.5.81.81,0,0,1-.17.54.53.53,0,0,1-.4.19.72.72,0,0,1-.48-.18l-.23-.2-.12,0a.39.39,0,0,0-.28.12,1,1,0,0,0-.33.5,3.79,3.79,0,0,0-.16,1.1v1.4a1.31,1.31,0,0,0,0,.38.39.39,0,0,0,.18.2,1.12,1.12,0,0,0,.41.08v.18h-2.6v-.18a.59.59,0,0,0,.42-.17,1.52,1.52,0,0,0,.12-.78V36.75a1.72,1.72,0,0,0-.05-.52.37.37,0,0,0-.14-.21.81.81,0,0,0-.35-.1v-.19Z"/><path class="cls-1" d="M186,33.4a.79.79,0,0,1,.8.8.76.76,0,0,1-.24.56.8.8,0,0,1-1.12,0,.75.75,0,0,1-.23-.56.79.79,0,0,1,.79-.8Zm.72,2.33v3.82a1.18,1.18,0,0,0,.12.66.67.67,0,0,0,.47.16v.18h-2.61v-.18a.66.66,0,0,0,.48-.19,1.26,1.26,0,0,0,.1-.63V36.74a1.12,1.12,0,0,0-.12-.65.64.64,0,0,0-.46-.17v-.19Z"/><path class="cls-1" d="M189.4,34v1.76h1.15v.51H189.4v3a2.61,2.61,0,0,0,0,.54.41.41,0,0,0,.14.2.34.34,0,0,0,.18.07q.33,0,.63-.51l.16.11a1.41,1.41,0,0,1-1.36,1,1.22,1.22,0,0,1-.78-.25,1.13,1.13,0,0,1-.4-.57,5.43,5.43,0,0,1,0-.95V36.24h-.63v-.18a6.16,6.16,0,0,0,1.1-1,5.63,5.63,0,0,0,.8-1.13Z"/><path class="cls-1" d="M193.39,40.75l-1.56-3.57a5.3,5.3,0,0,0-.52-1,.93.93,0,0,0-.41-.26v-.19h2.57v.19a.62.62,0,0,0-.36.1.26.26,0,0,0-.1.21,2.65,2.65,0,0,0,.26.78l.82,1.88.56-1.46a3.44,3.44,0,0,0,.31-1.08.35.35,0,0,0-.13-.3.68.68,0,0,0-.44-.13v-.19H196v.19a.61.61,0,0,0-.39.19,4.67,4.67,0,0,0-.5,1.07l-1.37,3.57A8,8,0,0,1,193,42.4a1.08,1.08,0,0,1-.89.43,1,1,0,0,1-.69-.24.78.78,0,0,1-.27-.59.71.71,0,0,1,.18-.5.62.62,0,0,1,.46-.19.53.53,0,0,1,.41.16.74.74,0,0,1,.16.51.61.61,0,0,0,.05.26.17.17,0,0,0,.12,0,.38.38,0,0,0,.26-.15,3.11,3.11,0,0,0,.49-1l.15-.4Z"/></svg>